<?xml version="1.0" encoding="utf-8"?>
<!-- Generator: Adobe Illustrator 15.0.0, SVG Export Plug-In . SVG Version: 6.00 Build 0)  -->
<!DOCTYPE svg PUBLIC "-//W3C//DTD SVG 1.1//EN" "http://www.w3.org/Graphics/SVG/1.1/DTD/svg11.dtd">
<svg version="1.1" id="Layer_1" xmlns="http://www.w3.org/2000/svg" xmlns:xlink="http://www.w3.org/1999/xlink" x="0px" y="0px"
	 width="1440px" height="462px" viewBox="0 0 1440 462" enable-background="new 0 0 1440 462" xml:space="preserve">
<defs>
	<filter id="Adobe_OpacityMaskFilter" filterUnits="userSpaceOnUse" x="-226.5" y="-639.423" width="1893.998" height="1415.448">
		<feColorMatrix  type="matrix" values="1 0 0 0 0  0 1 0 0 0  0 0 1 0 0  0 0 0 1 0"/>
	</filter>
</defs>
<mask maskUnits="userSpaceOnUse" x="-226.5" y="-639.423" width="1893.998" height="1415.448" id="mask0">
	<rect x="0" y="0" fill="#9B9EAB" filter="url(#Adobe_OpacityMaskFilter)" width="1440" height="462"/>
</mask>
<g mask="url(#mask0)">
	<g opacity="0.12">
		<path fill="none" stroke="#21118D" d="M467.837,30.339c-0.108-24.417-43.183-51.876-61.582-66.032
			c-36.382-28-74.22-53.855-111.706-80.125c-37.488-26.27-75.076-52.468-110.823-81.308c-23.21-18.721-50.481-39.806-66.224-66.538
			c-33.533-56.967,72.194-48.508,99.582-49.754c69.672-3.183,149.585-1.729,214.891-31.396c38.985-17.71,54.531-47.412,46.158-90.7
			c-2.699-14.078-10.688-30.278-3.92-43.993c7.226-14.647,23.851-23.1,37.648-28.769c50.327-20.65,108.191-23.043,161.44-25.636
			c57.418-2.849,115.377-2.015,172.391-2.235c24.175-0.093,49.423-9.257,72.444-16.706c30.18-9.763,60.003-20.729,89.933-31.332
			c65.851-23.271,133.7-47.782,203.36-53.692c43.63-3.703,91.31,1.304,125.2,33.512c17.02,16.172,25.92,40.212,35.76,61.567
			c11.91,25.799,23.35,51.848,36.02,77.241c40.851,81.784,99.15,161.703,193.8,165.719c14.311,0.605,28.381-1.367,42.631-1.738
			c9.069-0.228,17.149,2.088,20.52,12.106c8.48,25.13-18.18,64.801-29.109,84.739c-23.931,43.645-50.921,85.331-76.2,128.099
			c-16.73,28.284-45.681,66.938-45.98,101.303c-0.27,30.62,38.32,52.752,59.33,67.834c19.69,14.121,55.36,33.882,57.521,62.607
			c1.05,13.929-7.65,25.472-16.74,34.43c-15.93,15.666-34.29,26.718-48.62,44.592c-23.5,29.324-43.13,69.672-39.94,109.186
			c2.21,27.38,17.021,45.311,35.851,62.451c7.91,7.206,14.34,12.305,14.75,24.005c0.68,18.578-6.22,38.239-11.9,55.465
			c-20.319,61.646-49.189,121.255-81.29,176.913c-16.05,27.814-33.38,55.543-54.66,79.271c-13.93,15.581-32.72,34.124-53.97,34.102
			c-24.61,0-50.649-9.371-74.57-16.378c-44.67-13.095-88.8-28.234-132.76-43.765c-101.66-35.934-202.362-74.775-302.106-116.527
			c-70.26-29.46-142.01-58.962-208.063-98.127c-12.883-7.691-25.042-16.659-36.313-26.782
			c-12.045-10.632-26.989-15.389-42.144-18.935c-94.056-22.012-197.099-5.113-291.546,5.482
			c-23.973,2.686-47.944,5.385-71.985,7.265c-20.666,1.615-45.408,6.252-65.494-0.712c-39.579-13.708-4.98-64.231,9.647-84.818
			c51.501-72.484,117.948-133.811,179.536-196.417c29.283-29.816,58.788-59.554,86.479-91.057
			C439.497,78.377,467.931,51.745,467.837,30.339z"/>
		<path fill="none" stroke="#21118D" d="M485.584,26.222c-15.785-25.837-43.481-44.935-66.472-62.907
			c-33.084-25.873-67.208-50.309-100.817-75.448c-31.781-23.773-63.629-47.818-93.061-74.815
			c-17.946-16.464-40.464-36.151-48.964-60.502c-18.439-52.777,80.758-44.771,105.247-46.151
			c60.881-3.416,129.905-4.199,186.228-31.987c35.17-17.353,49.619-46.131,42.118-86.083c-2.593-13.823-7.265-25.624-1.35-39.376
			c6.839-15.915,22.571-25.837,36.993-32.841c45.176-21.944,98.575-26.607,147.547-30.486c50.591-4.007,103.303-6.833,152.267-3.899
			c19.58,1.167,42.118-5.46,61.495-10.542c29.816-7.829,59.329-16.862,88.996-25.262c60.298-17.083,122.158-33.538,184.878-35.41
			c45.28-1.353,92.5,5.979,130.18,34.314c38.181,28.735,55.12,73.278,76.29,115.622c36.57,73.206,85.96,162.214,170.561,177.681
			c12.83,2.35,25.16,1.075,37.97,1.652c6.59,0.292,14.09,1.217,17.43,8.071c8.681,17.795-15.09,50.33-23.09,63.961
			c-22.109,37.667-46.96,73.491-70.13,110.433c-18.399,29.332-41.72,61.925-48.83,96.695c-8.64,42.194,47.78,72.217,67.63,101.927
			c34.4,51.52-30.779,80.873-62.91,105.437c-36.899,28.2-67.35,79.647-34.279,123.28c12.66,16.685,28.229,26.627,33.88,48.401
			c8.83,34.051,2.149,72.964-5.021,106.624c-10.8,50.602-27.899,100.653-51.14,146.385c-16.65,32.742-44.271,84.083-84.72,80.232
			c-27.23-2.569-54.91-11.958-81.431-20.257c-39.699-12.421-78.899-26.578-117.89-41.283
			c-90.01-33.854-179.025-71.178-266.292-112.234C809.354,529.43,643.26,414.912,630.762,410.826
			c-37.264-12.171-79.631-10.029-118.049-8.143c-51.104,2.506-101.952,8.997-152.761,15.012c-24.184,2.847-48.49,6.328-72.804,7.73
			c-17.305,0.996-40.031,1.85-55.189-8.763c-29.586-20.706,3.376-68.082,17.008-88.126c41.76-61.448,94.586-114.661,144.118-169.068
			c24.306-26.714,48.983-53.385,71.049-82.239C473.032,65.577,495.341,42.18,485.584,26.222z"/>
		<path fill="none" stroke="#21118D" d="M507.423,12.971c-43.11-51.704-102.612-90.157-153.966-133.34
			c-25.774-21.68-51.712-43.949-73.941-69.773c-11.563-13.428-26.004-30.409-28.231-49.127
			c-5.954-50.073,83.452-43.302,110.213-45.203c51.738-3.688,110.187-6.486,157.125-32.039c28.678-15.621,42.801-41.26,37.44-74.958
			c-2.376-14.951-6.076-27.653,0-42.334c6.157-14.873,18.983-25.368,31.972-33.235c37.325-22.627,83.71-29.86,125.734-35.25
			c49.298-6.277,98.967-8.729,148.606-7.334c43.475,1.204,86.74-12.331,129.189-21.252c56.235-11.812,113.485-22.129,171.035-20.568
			c45.439,1.237,91.25,10.971,130.1,36.837c39.48,26.344,63.21,65.772,84.61,108.32c32.35,64.32,72.67,150.514,143.64,174.941
			c10.32,3.56,19.94,3.951,30.59,4.571c5.17,0.299,11.851,0.391,14.41,6.08c6.17,13.698-16.64,40.255-23.01,49.511
			c-20.32,29.547-42.34,57.763-63.17,86.919c-19.44,27.219-40.62,55.584-52.7,87.48c-19.22,50.8,42.23,80.504,40.51,128.911
			c-1.069,30.053-28.35,51.604-49.96,66.514c-26.6,18.333-64.89,30.387-78.21,63.843c-9.909,24.919,5.65,39.422,17.63,58.333
			c20.311,32.039,21.69,75.47,19.58,112.557c-2.85,50.116-13.979,100.974-32.93,147.038c-8.59,20.883-19.11,42.605-34.59,58.824
			c-14.51,15.2-28.24,19.095-47.63,15.984c-59.351-9.541-119.28-36.133-176.2-59.885c-71.51-29.847-142.034-62.798-210.454-99.87
			c-46.655-25.282-94.362-52.031-135.313-86.962c-10.674-9.105-21.604-19.003-29.407-31.014c-5.9-9.028-8.404-16.482-18.349-21.637
			c-29.474-15.272-70.472-11.278-102.052-9.69c-50.497,2.528-100.75,9.256-150.935,15.315
			c-29.285,3.56-84.453,14.759-107.838-12.104c-20.186-23.195,4.172-62.747,16.613-83.18
			c31.473-51.676,71.957-97.029,109.52-143.729c17.214-21.401,35.104-42.968,49.321-66.762c3.632-6.066,9.45-14.104,10.449-21.474
			C517.948,25.788,512.716,19.344,507.423,12.971z"/>
		<path fill="none" stroke="#21118D" d="M511.13,25.009c-39.836-45.716-87.828-83.273-130.595-126.054
			c-19.176-19.182-38.54-39.303-53.15-62.703c-7.859-12.583-16.204-28.423-14.037-44.063c6.219-44.89,79.753-40.835,109.461-43.464
			c44.143-3.862,94.855-7.752,133.889-31.957c25.569-15.854,35.156-39.268,30.383-69.464c-5.125-32.393,6.333-55.905,32.409-73.976
			c32.692-22.637,73.959-31.864,111.918-38.419c45.733-7.86,92.045-11.345,138.372-10.41c45.056,0.912,88.705-7.054,133.46-12.233
			c59.351-6.862,120.59-10.247,179.261,3.818c51.09,12.248,97.229,39.239,131.819,80.979c36.13,43.563,54.01,98.45,83.351,146.645
			c18.3,30.063,43.81,69.828,78.01,81.514c11.399,3.897,32.18-1.361,23.07,17.813c-5.2,10.966-14.95,20.585-22.641,29.549
			c-12.439,14.486-25.29,28.572-37.93,42.859c-26.96,30.453-55.82,61.555-76.021,97.616c-25.46,45.402,12.38,80.345,7.771,126.381
			c-2.48,24.774-18.811,44.547-36.08,60.08c-11.17,10.061-23.4,18.775-35.88,26.905c-13.04,8.493-28.47,14.964-39.84,25.943
			c-16.2,15.625-9.171,34.123-6.13,54.323c5.35,35.5,6.52,71.56,3.5,107.364c-3.7,43.884-12.381,89.022-30.65,128.902
			c-7.11,15.526-16.12,31.986-29.5,42.396c-13.37,10.41-27.21,9.697-42.53,6.563c-45.46-9.264-90.83-30.817-133.95-51.245
			c-53.977-25.573-106.891-54.152-157.422-86.665c-34.88-22.445-69.875-46.692-99.056-77.125
			c-8.487-8.856-16.563-18.34-23.091-28.929c-4.483-7.26-6.888-16.63-13.382-22.088c-20.323-17.037-61.125-11.949-84.959-10.959
			c-47.566,1.974-94.384,11.358-141.89,13.638c-25.927,1.247-66.533,4.383-85.573-18.909c-17.905-21.896-1.688-56.384,9.015-77.481
			c21.032-41.483,49.288-78.442,74.614-117.004c10.411-15.868,21.821-32.47,28.566-50.59
			C531.689,48.415,521.338,36.729,511.13,25.009z"/>
		<path fill="none" stroke="#21118D" d="M520.927,25.756c-31.708-40.229-69.934-75.938-101.87-116.822
			c-18.694-23.942-50.888-64.192-36.431-97.946c15.86-37.09,71.147-38.101,103.105-41.089c38.036-3.559,82.703-8.417,115.255-31.577
			c10.295-7.321,19.065-17.012,22.782-29.776c3.981-13.66-0.371-25.614-0.938-39.29c-1.188-28.688,15.044-51.719,36.525-67.535
			c30.358-22.363,68.32-32.937,104.177-40.308c40.624-8.313,81.923-12.413,123.305-12.238c39.547,0.144,78.676-0.781,118.262-1.85
			c51.77-1.423,104.27,0.875,154.49,15.383c49.479,14.301,94.449,41.104,129.779,80.528c34.471,38.472,57.73,85.495,78.09,133.394
			c11.561,27.187,31.08,67.814,58.65,81.546c12.26,6.111,24.29,5.692,11.25,21.588c-16.41,20.014-38.53,36.073-57.54,53.191
			c-27.43,24.704-55.54,49.891-78.56,79.262c-14.7,18.756-21.25,36.956-20.24,61.239c0.79,18.5,4.33,36.808,2.54,55.377
			c-4.2,43.587-36.74,73.478-65.51,101.312c-18.5,17.901-35.4,31.556-44.931,57.021c-11.27,30.097-15.989,62.84-23.52,94.089
			c-8.271,34.316-17.83,70.014-35.88,100.237c-16.07,26.91-35.62,38.978-64.87,31.727c-45.62-11.298-90.595-39.132-131.1-64.882
			c-41.228-26.198-81.746-55.654-115.91-91.664c-18.444-19.445-31.033-42.277-47.413-63.168
			c-20.604-26.226-67.215-16.293-94.915-14.072c-45.984,3.685-190.673,31.263-177.322-58.06
			c5.572-37.283,27.518-71.691,43.568-104.592c6.651-13.654,16.278-30.04,17.783-45.686
			C545.181,54.052,530.46,37.866,520.927,25.756z"/>
		<path fill="none" stroke="#21118D" d="M537.669,29.172c-24.231-36.455-53.229-70.896-74.021-110.27
			c-13.487-25.499-26.732-59.57-9.333-86.55c19.638-30.447,62.94-37.545,94.758-41.424c32.781-3.994,71.916-7.354,98.709-30.44
			c8.524-7.354,15.551-17.27,16.86-29.145c1.261-11.391-2.3-22.78-1.12-34.376c2.645-26.041,17.608-47.497,36.902-63.059
			c57.073-46.037,142.019-56.273,210.88-57.477c34.468-0.599,69.94,2.541,104.626,4.791c45.02,2.918,90.1,9.183,133.029,24.281
			c91.28,32.092,152.461,103.266,195.19,191.83c13.45,27.877,23.74,58.039,44.81,80.442c10.87,11.568,8.49,19.875-2.609,30.426
			c-17.37,16.486-38.55,29.087-57.82,42.848c-27.42,19.569-55.42,39.431-79.66,62.873c-16.71,16.159-28.58,31.729-32.18,55.961
			c-2.57,17.277-1.97,34.882-3.51,52.266c-2.94,33.023-13.01,65.799-30.83,93.191c-14.17,21.713-31.03,41.446-48.45,60.262
			c-22.649,24.495-41.81,49.383-59.02,78.456c-22.801,38.483-54.851,109.472-108.573,90.686
			c-59.251-20.729-114.787-73.402-152.802-124.436c-12.767-17.136-23.246-38.15-40.464-50.786
			c-25.774-18.886-51.927-18.225-82.585-18.146c-45.898,0.107-145.774,10.622-146.854-61.933
			c-0.425-28.746,11.364-55.925,17.008-83.574C566.977,74.903,554.218,54.016,537.669,29.172z"/>
		<path fill="none" stroke="#21118D" d="M555.716,32.423c-23.968-47.514-77.712-125.587-36.835-178.422
			c21.592-27.922,59.783-38.415,91.82-44.668c25.782-5.057,56.875-6.957,76.355-28.397c14.318-15.765,7.963-38.706,13.448-58.44
			c6.809-24.464,22.436-44.481,41.64-59.527c53.663-42.051,128.278-54.954,192.832-57.7c67.043-2.847,140.913,10.464,204.003,36.066
			c78.67,31.935,137.6,92.401,178.81,168.975c7.61,14.135,14.521,28.64,21.82,42.945c4.9,9.598,12.18,18.881,16.04,28.976
			c6.44,16.831-1.14,30.589-13.3,41.559c-17.49,15.792-38.98,27.032-58.92,38.884c-27.26,16.22-55.141,32.147-80.5,51.177
			c-17.05,12.805-34.891,26.599-40.99,48.814c-4.16,15.152-5.02,31.201-4.87,46.895c0.32,33.648-1.35,60.858-16.24,91.676
			c-24.489,50.593-62.159,96.086-101.949,133.938c-31.23,29.708-80.639,75.855-126.138,55.993
			c-40.821-17.784-64.701-60.353-91.598-94.77c-13.077-16.732-27.766-32.013-45.026-43.913
			c-21.761-15.003-42.247-21.299-68.028-23.753c-43.395-4.133-108.825-5.208-122.239-60.126
			c-4.953-20.268-2.126-41.261-4.724-61.791C577.733,79.665,567.808,56.388,555.716,32.423z"/>
		<path fill="none" stroke="#21118D" d="M580.638,34.181c-17.067-51.988-39.488-117.508,1.732-163.713
			c19.968-22.385,48.053-34.897,75.233-44.247c19.468-6.702,50.379-8.676,62.314-29.278c8.766-15.162,9.979-36.078,17.909-52.323
			c10.897-22.334,27.404-40.729,46.771-55.129c50.452-37.525,116.164-52.023,176.091-56.176
			c130.21-9.009,262.7,62.742,332.38,180.792c20.771,35.188,47.59,72.641,14.021,108.591c-36.66,39.22-91.881,57.594-135.631,85.461
			c-16.72,10.64-38.02,23.431-47.34,42.694c-5.609,11.58-6,26.108-6.25,38.856c-0.68,32.469-3.229,61.667-15.609,91.962
			c-19.11,46.818-49.58,90.013-84.11,125.393c-30.117,30.852-73.063,67.107-116.8,44.867c-33.534-17.093-54.802-53.37-80.857-80.112
			c-28.996-29.783-64.855-49.853-104.235-59.659c-38.309-9.514-80.325-15.931-100.515-56.354
			c-6.925-13.866-14.161-31.82-16.757-47.167C594.795,83.335,588.658,58.433,580.638,34.181z"/>
		<path fill="none" stroke="#21118D" d="M608.426,34.548c-7.896-52.497-8.773-107.237,27.912-148.612
			c17.121-19.304,38.763-33.018,60.647-45.441c16.103-9.143,32.73-16.854,44.755-31.842c11.143-13.877,19.611-29.99,30.368-44.231
			c14.19-18.871,31.168-35.208,50.283-48.381c47.914-32.96,106.2-48.375,161.962-53.722c26.996-2.599,56.276-3.952,83.086,3.132
			c25.89,6.836,51.5,17.645,75.311,30.247c50.609,26.765,94.47,65.962,126.27,115.518c21.81,33.992,33.6,67.045,5.36,101.528
			c-31.83,38.869-81.74,60.314-122.88,85.542c-28.221,17.302-59.841,34.263-65.11,71.031c-4.2,29.257-7.61,57.025-18.46,84.681
			c-16.16,40.791-39.92,77.742-69.877,108.661c-27.393,28.168-62.045,52.07-101.227,37.025
			c-31.043-11.94-55.128-38.691-82.25-57.816c-30.226-21.361-63.435-33.137-98.404-42.606
			c-31.429-8.546-61.021-21.675-81.332-49.551c-4.157-5.695-8.524-11.897-11.729-18.27c-4.09-8.132-3.771-16.192-4.575-25.305
			C616.444,82.083,611.995,58.308,608.426,34.548z"/>
		<path fill="none" stroke="#21118D" d="M639.066,30.257c0.674-49.864,12.04-96.99,43.17-135.851
			c13.309-16.624,29.2-30.317,43.844-45.55c11.791-12.281,22.935-23.692,36.492-33.812c32.161-23.963,58.299-54.971,92.479-76.309
			c45.625-28.527,97.887-44.295,149.739-50.6c25.33-3.08,51.48-4.157,77.101-0.678c22.01,2.988,43.08,13.479,62.63,24.212
			c38.31,21.024,75.51,50.906,100.39,88.711c54.841,83.349-53.29,143.946-108.79,179.434c-25.529,16.324-64.529,35.23-74.979,67.565
			c-7.48,23.099-12.03,46.591-21.65,68.978c-25.859,60.12-78.344,130.83-148.286,121.416c-29.928-4.022-57.206-20.361-85.145-31.329
			c-28.77-11.297-58.462-17.594-88.363-24.504c-27.945-6.455-50.219-15.641-68.269-40.267c-8.628-11.76-7.865-25.838-8.634-40.265
			C639.537,77.712,638.762,53.877,639.066,30.257z"/>
		<path fill="none" stroke="#21118D" d="M666.966,23.87c11.235-75.266,52.968-157.436,114.331-201.146
			c72.18-51.418,150.377-94.717,236.612-107.164c39.99-5.771,83.79-8.611,121.511,10.263c28.72,14.354,62.069,35.812,77.869,65.986
			c38.66,73.807-47.33,132.563-96.319,166.708c-26.38,18.383-59.95,36.295-79.83,63.14c-11.54,15.563-17.43,36.152-26.74,53.247
			c-28.217,51.802-74.67,93.584-132.534,101.057c-26.755,3.451-53.705-0.818-80.257-4.213c-27.18-3.473-54.697-5.358-81.709-10.206
			c-21.561-3.871-46.972-10.426-54.913-34.771C654.973,96.091,662.38,54.607,666.966,23.87z"/>
		<path fill="none" stroke="#21118D" d="M694.323,11.779c16.389-70.763,51.09-139.788,109.429-182.032
			c30.936-22.399,66.849-37.864,101.327-53.142c39.083-17.315,79.917-30.755,121.62-37.422c51.931-8.306,136.03-15.79,163.16,46.639
			c26.93,61.967-41.109,116.811-81.35,148.064c-25.801,20.021-53.41,38.397-78.061,60.285c-13.37,11.866-23.66,25.577-34.974,39.495
			c-31.261,38.562-75.827,69.089-121.251,85.386c-44.026,15.798-98.489,22.793-144.962,17.571
			c-20.052-2.244-34.384-9.814-40.449-31.34C680.41,75.362,687.55,41.01,694.323,11.779z"/>
		<path fill="none" stroke="#21118D" d="M721.51-7.28c16.279-62.305,51.394-119.21,102.613-156.604
			c57.414-41.919,131.346-65.212,199.297-77.057c36.119-6.292,114.39-23.351,132.8,25.47c18.41,48.821-34.811,96.932-65.44,123.417
			c-37.18,32.095-77.26,63.084-117.299,91.881c-34.784,25.038-71.901,50.637-109.578,69.972
			c-21.249,10.969-43.385,19.925-66.144,26.762c-16.854,5.021-38.283,12.512-55.952,8.773C697.24,95.893,713.724,22.51,721.51-7.28z
			"/>
		<path fill="none" stroke="#21118D" d="M755.067-25.937c35.72-117.824,148.893-175.772,257.854-195.972
			c25.33-4.688,96.31-21.592,110.46,14.4c13.72,34.897-29.9,76.283-50.32,95.89C1009.78-50.86,931.598-5.81,857.516,38.82
			c-23.124,13.931-64.829,44.16-93.513,30.216C732.86,53.867,747.666-1.505,755.067-25.937z"/>
		<path fill="none" stroke="#21118D" d="M791.655-48.615c31.064-86.77,121.416-136.534,204.486-152.94
			c20.349-4.014,72.019-16.512,87.429,7.701c14.26,22.398-19.77,54.854-32.5,67.751c-28.35,28.719-61.94,52.377-95.128,75.118
			c-30.686,21.039-61.703,42.604-93.99,60.398c-17.007,9.366-48.901,29.353-68.228,14.89
			C772.918,8.745,784.758-29.348,791.655-48.615z"/>
		<path fill="none" stroke="#21118D" d="M-207.146,97.112c-0.855-55.589-28.85-113.36-15.024-170.002
			c11.353-46.52,68.508-50.403,102.796-71.479c27.246-16.743,42.709-46.404,57.444-74.864
			c13.239-25.551,25.131-51.868,39.078-76.998c9.028-16.247,24.531-48.149,44.111-48.726c18.744-0.555,35.932,24.306,46.819,39.001
			c14.196,19.155,26.782,39.577,40.566,59.038c23.232,32.827,51.105,57.125,83.021,80.122
			c36.319,26.166,73.239,51.439,110.759,75.818c27.625,18.003,55.437,35.871,81.989,55.652C401.071-22.913,437.83,0.375,438,23.258
			c0.079,10.918-9.724,23.011-16.332,31.738c-11.186,14.773-23.933,28.281-36.721,41.497c-23.817,24.618-48.646,48.12-73.204,71.906
			c-31.875,30.871-62.322,61.235-90.345,96.282c-28.972,36.276-56.649,73.748-84.894,110.708
			c-19.128,25.038-38.235,53.156-65.826,68.52c-34.558,19.205-62.923-1.046-97.87-1.28c-30.063-0.206-27.847-73.727-31.667-94.17
			c-3.834-20.691-12.282-39.954-15.558-60.695c-4.083-25.892-4.137-52.381-5.141-78.55c-1.219-32.009-1.704-62.48-34.118-74.687
			c-18.448-6.936-38.405-8.395-57.499-12.548C-183.544,119.283-206.876,114.674-207.146,97.112z"/>
		<path fill="none" stroke="#21118D" d="M-192.366,87.223c-3.152-46.597-21.77-106.237-4.164-154.337
			c15.041-41.104,62.08-46.434,93.754-68.025c26.148-17.81,37.788-46.953,50.858-75.584c10.486-22.967,20.655-46.155,32.559-68.389
			c8.771-16.385,22.166-44.046,40.405-47.438c16.397-3.049,33.982,21.371,43.187,33.795c13.428,18.137,24.913,37.835,36.775,57.119
			c20.844,33.874,42.187,64.335,72.694,89.219c30.642,24.99,64.165,43.677,98.046,63.124c26.505,15.217,52.875,30.875,78.059,48.442
			c18.759,13.079,45.729,29.82,54.313,53.144c6.795,18.45-27.666,49.068-37.828,59.875c-20.919,22.22-43.085,43.078-65.291,63.809
			c-27.072,25.261-55.008,47.352-78.916,76.168c-42.762,51.519-78.504,115.676-133.525,153.967
			c-33.187,23.095-70.117,29.001-107.027,25.546c-14.616-1.368-18.125-23.145-19.967-35.847
			c-3.063-21.102-3.448-42.565-5.803-63.751c-2.207-19.833-7.105-38.675-11.054-58.123c-3.994-19.705-5.114-39.895-8.057-59.734
			c-1.822-12.316-3.623-26.649-11.593-36.552c-8.246-10.251-21.85-14.547-33.739-17.81
			C-131.009,119.772-190.14,120.107-192.366,87.223z"/>
		<path fill="none" stroke="#21118D" d="M-173.344,67.718c-5.3-42.772-12.72-96.046,8.871-135.453
			c17.647-32.222,55.285-39.174,82.169-60.167c22.359-17.459,30.806-45.228,41.904-71.032c9.107-21.165,18.262-42.423,29.3-62.565
			c8.372-15.273,19.16-35.984,35.781-41.313c14.212-4.554,30.266,15.844,38.145,25.997c13.414,17.302,24.352,36.688,35.214,55.819
			c17.77,31.305,34.121,64.742,59.411,90.205c24.573,24.709,53.766,39.294,83.505,55.692c22.778,12.564,45.415,25.612,66.876,40.596
			c16.48,11.497,36.902,25.121,45.49,44.252c7.426,16.499-11.639,36.028-21.165,47.668c-15.729,19.209-33.188,36.831-50.403,54.525
			c-18.58,19.088-39.157,36.697-57.136,56.254c-37.807,41.158-68.012,86.726-114.608,118.258
			c-30.178,20.425-70.786,38.98-106.459,35.644c-25.654-2.404-23.967-62.323-26.431-81.469
			c-4.051-31.304-11.876-64.193-24.305-93.028c-10.674-24.709-36.038-32.329-59.37-37.871c-14.615-3.479-29.935-5.357-44.071-10.735
			C-166.992,92.76-171.123,85.645-173.344,67.718z"/>
		<path fill="none" stroke="#21118D" d="M-155.601,47.669c-3.154-36.162-2.445-78.925,17.994-110.206
			c17.912-27.399,49.805-34.613,72.488-56.197c17.703-16.841,24.655-44.296,34.176-66.566c11.636-27.228,27.94-77.518,57.292-87.765
			c27.305-9.525,55.859,51.325,65.745,69.47c15.649,28.72,28.737,60.215,47.717,86.737c16.345,22.833,38.244,35.456,61.488,49.02
			c29.636,17.325,74.63,37.867,90.475,71.632c11.812,25.159-26.595,62.563-39.711,79.994c-13.716,18.21-24.047,39.794-38.203,57.361
			c-22.338,27.721-58.534,50.041-88.421,67.073c-29.055,16.567-66.785,34.905-99.745,33.813
			C4.031,241.322-0.091,206.016-4.713,188.77c-6.621-24.518-15.426-46.487-34.338-63.162c-19.251-16.976-41.94-24.975-65.793-31.974
			c-12.243-3.568-26.21-6.351-37.162-13.558C-154.108,72.235-154.385,61.568-155.601,47.669z"/>
		<path fill="none" stroke="#21118D" d="M-133.982,26.825c0.175-31.241,6.944-64.556,27.014-88.654
			c16.717-20.072,42.883-26.782,58.885-47.303c12.676-16.245,19.127-39.051,27.613-57.917
			c10.379-23.118,25.055-63.505,50.863-71.528c25.188-7.81,47.468,36.674,57.126,54.275c14.144,25.809,25.593,53.167,39.864,78.905
			c11.18,20.193,24.852,33.208,43.057,46.223c21.37,15.287,51.187,32.221,62.603,57.513c8.229,18.312-11.692,47.571-18.925,63.703
			c-4.851,10.835-9.288,21.841-11.727,33.585c-1.898,9.145-2.088,17.608-7.59,25.461c-13.854,19.753-44.229,22.33-64.838,28.842
			c-27.371,8.641-56.413,18.461-85.057,20.335c-17.605,1.172-26.59-15.947-36.639-27.989
			c-11.874-14.236-28.685-24.476-43.366-35.217c-19.377-14.201-40.464-23.034-62.279-32.08c-9.839-4.082-21.396-8.087-29.021-16.202
			C-134.359,50.362-134.042,38.099-133.982,26.825z"/>
		<path fill="none" stroke="#21118D" d="M-111.276,8.278c3.479-26.238,14.32-51.316,32.631-69.864
			c14.037-14.241,32.678-22.259,43.943-39.369c10.497-15.948,17.813-34.085,26.482-51.138c9.176-18.029,22.808-48.162,43.971-53.068
			c22.808-5.282,40.377,25.114,50.105,41.96c12.29,21.29,21.628,44.196,32.617,66.22c8.279,16.415,18.839,31.428,31.329,44.538
			c13.1,13.82,30.865,27.057,37.492,46.061c5.857,16.833-5.104,37.197-7.039,54.265c-2.069,18.235,1.558,37.389-9.917,53.047
			c-23.664,32.291-83.054,26.302-117.005,26.992C19.833,128.633-7.1,108.874-34.21,90.077
			c-17.906-12.411-36.554-22.921-54.912-34.484C-107.837,43.795-114.336,31.37-111.276,8.278z"/>
		<path fill="none" stroke="#21118D" d="M-90.179-6.74c10.288-38.012,42.419-58.215,65.389-86.941
			c18.794-23.517,32.887-72.218,64.538-78.661c35.937-7.311,57.449,57.218,69.942,82.117c13.863,27.614,38.554,50.077,48.82,79.31
			c5.397,15.343,0.762,29.659-2.111,44.995c-3.15,16.84-5.518,34.057-16.393,47.611c-21.405,26.674-63.21,26.489-93.316,27.223
			c-31.167,0.762-58.737-17.517-83.569-35.76C-63.216,53.834-100.716,32.241-90.179-6.74z"/>
		<path fill="none" stroke="#21118D" d="M-72.949-17.047c11.593-27.082,35.952-49.1,55.719-69.884
			c16.498-17.328,34.247-52.21,59.401-54.696c29.565-2.933,47.483,34.315,59.116,57.154c11.449,22.442,27.947,46.138,34.288,70.77
			c6.61,25.658-10.995,60.214-27.785,78.371C89.064,84.914,58.425,92.394,32.135,91.587c-27.526-0.821-52.783-17.555-73.63-34.91
			C-63.782,38.124-86.429,14.391-72.949-17.047z"/>
		<path fill="none" stroke="#21118D" d="M-56.961-22.146c11.073-22.525,30.268-41.58,47.965-58.577
			c13.657-13.122,33.811-35.434,53.515-35.981c21.677-0.603,40.048,18.126,48.665,37.323c8.495,18.934,17.446,42.673,18.718,63.445
			c2.763,45.234-53.46,95.906-95.677,91.782C-23.802,71.936-79.038,22.734-56.961-22.146z"/>
		<path fill="none" stroke="#21118D" d="M-42.175-24.63c15.276-29.348,52.381-71.188,86.733-72.183
			c39.43-1.135,49.328,45.425,44.188,79.167c-5.222,34.438-50.682,84.284-86.93,77.549C-33.56,53.331-60.278,10.177-42.175-24.63z"
			/>
		<path fill="none" stroke="#21118D" d="M-26.562-29.375c12.934-24.573,40.532-55.267,69.317-56.195
			c34.299-1.099,33.651,38.211,25.874,62.678C60.541,2.51,24.922,45.897-5.11,39.047C-34.312,32.359-38.957-5.823-26.562-29.375z"/>
		<path fill="none" stroke="#21118D" d="M-12.965-32.203c8.537-17.534,29.903-39.694,50.215-40.404
			c24.827-0.852,20.001,30.327,13.586,45.375C43.212-9.325,17.656,21.789-3.792,16.746C-24.908,11.782-20.008-17.756-12.965-32.203z
			"/>
	</g>
</g>
</svg>
