<svg width="1728" height="1200" viewBox="0 0 1728 1200" fill="none" xmlns="http://www.w3.org/2000/svg">
<g clip-path="url(#clip0_106_2)">
<rect width="1728" height="1200" rx="30" fill="#F8F8F8"/>
<rect x="0.5" y="109.5" width="389" height="1116" fill="white" stroke="#E5E7EB"/>
<rect x="0.5" y="109.5" width="1727" height="131" fill="white" stroke="#E5E7EB"/>
<rect width="1728" height="109" fill="#1B2530"/>
<path fill-rule="evenodd" clip-rule="evenodd" d="M88.2452 145.082L97.9517 151.082L98.2476 151.251L98.4417 151.379L108.416 157.548V157.538C110.154 158.618 111.522 160.143 112.475 161.905C113.344 163.529 113.852 165.351 113.944 167.213C113.972 167.421 113.991 167.639 113.991 167.856V193.018C113.991 195.335 113.371 197.503 112.299 199.335C111.199 201.226 109.618 202.751 107.76 203.742L98.2476 209.623C94.8272 211.604 91.4253 213.822 88.0511 215.911L87.783 216.06C86.0821 217.05 84.2332 217.505 82.4213 217.496H82.4028C80.4245 217.476 78.4925 216.901 76.8193 215.832L76.6344 215.703L67.122 209.821C67.0018 209.762 66.8724 209.693 66.7522 209.623L56.5835 203.336C54.8455 202.256 53.4774 200.731 52.5252 198.969C51.6563 197.345 51.1478 195.523 51.0554 193.651C51.0276 193.443 51.0092 193.226 51.0092 193.018V167.856C51.0092 165.539 51.6285 163.371 52.7009 161.539C53.8009 159.648 55.3817 158.123 57.2398 157.132L66.7522 151.251C70.1911 149.26 73.5837 147.052 76.9672 144.963C78.7421 143.873 80.6741 143.359 82.5785 143.378C84.5567 143.398 86.498 143.972 88.1805 145.042L88.2452 145.082Z" fill="#21118D"/>
<path fill-rule="evenodd" clip-rule="evenodd" d="M58.2291 180.422C58.2291 176.243 61.4277 172.817 65.3288 172.817H75.4143C83.2257 172.817 89.6135 179.66 89.6135 188.027H65.338C61.4369 188.027 58.2384 184.611 58.2384 180.422H58.2291Z" fill="#7E57FE"/>
<path fill-rule="evenodd" clip-rule="evenodd" d="M75.4143 165.628C75.4143 161.45 78.6036 158.024 82.5139 158.024C86.415 158.024 89.6136 161.44 89.6136 165.628C89.6136 169.807 86.4243 173.233 82.5139 173.233C78.6128 173.233 75.4143 169.817 75.4143 165.628Z" fill="#F7657C"/>
<path fill-rule="evenodd" clip-rule="evenodd" d="M106.919 180.422V179.036C106.919 175.62 104.303 172.817 101.113 172.817C94.7256 172.817 89.5026 178.412 89.5026 185.254V188.027H99.8192C103.72 188.027 106.919 184.611 106.919 180.422Z" fill="#7E57FE"/>
<path fill-rule="evenodd" clip-rule="evenodd" d="M82.5139 206.673C86.415 206.673 89.6136 203.256 89.6136 199.068V188.017H75.4143V199.068C75.4143 203.246 78.6036 206.673 82.5139 206.673Z" fill="white"/>
<rect x="51" y="295" width="280" height="60" rx="15" fill="#21118D"/>
<rect x="443" y="281" width="229" height="50" rx="25" fill="#EFEFEF"/>
<rect x="435" y="150" width="477" height="60" rx="30" fill="#EFEFEF"/>
<rect x="462" y="21" width="804" height="60" rx="30" fill="#2F3741"/>
<rect x="443" y="350" width="1228" height="50" rx="25" fill="#EFEFEF"/>
<g filter="url(#filter0_d_106_2)">
<rect x="443" y="440" width="279" height="135" rx="20" fill="white"/>
</g>
<g filter="url(#filter1_d_106_2)">
<rect x="443" y="621" width="916" height="351" rx="20" fill="white"/>
</g>
<g filter="url(#filter2_d_106_2)">
<rect x="443" y="1031" width="1228" height="351" rx="20" fill="white"/>
</g>
<g filter="url(#filter3_d_106_2)">
<rect x="1393" y="621" width="278" height="351" rx="20" fill="white"/>
</g>
<g filter="url(#filter4_d_106_2)">
<rect x="761" y="440" width="280" height="135" rx="20" fill="white"/>
</g>
<g filter="url(#filter5_d_106_2)">
<rect x="1080" y="440" width="279" height="135" rx="20" fill="white"/>
</g>
<g filter="url(#filter6_d_106_2)">
<rect x="1393" y="440" width="279" height="135" rx="20" fill="white"/>
</g>
<rect x="51" y="406" width="50" height="50" rx="25" fill="#EFEFEF"/>
<rect x="118" y="419" width="213" height="24" rx="12" fill="#EFEFEF"/>
<rect x="51" y="484" width="50" height="50" rx="25" fill="#EFEFEF"/>
<rect x="118" y="497" width="213" height="24" rx="12" fill="#EFEFEF"/>
<rect x="51" y="562" width="50" height="50" rx="25" fill="#EFEFEF"/>
<rect x="118" y="575" width="213" height="24" rx="12" fill="#EFEFEF"/>
<rect x="51" y="640" width="50" height="50" rx="25" fill="#EFEFEF"/>
<rect x="118" y="653" width="213" height="24" rx="12" fill="#EFEFEF"/>
<rect x="51" y="718" width="50" height="50" rx="25" fill="#EFEFEF"/>
<rect x="118" y="731" width="213" height="24" rx="12" fill="#EFEFEF"/>
<rect x="51" y="796" width="50" height="50" rx="25" fill="#EFEFEF"/>
<rect x="118" y="809" width="213" height="24" rx="12" fill="#EFEFEF"/>
<circle cx="1647" cy="175" r="30" fill="white" stroke="#98A3E3" stroke-width="2"/>
<circle cx="1647" cy="175" r="25" fill="#E7E7E7"/>
<path d="M154.252 167.768C156.7 167.768 158.668 168.524 160.156 170.036C161.668 171.524 162.424 173.612 162.424 176.3V188H157.384V176.984C157.384 175.424 156.988 174.236 156.196 173.42C155.404 172.58 154.324 172.16 152.956 172.16C151.588 172.16 150.496 172.58 149.68 173.42C148.888 174.236 148.492 175.424 148.492 176.984V188H143.452V176.984C143.452 175.424 143.056 174.236 142.264 173.42C141.472 172.58 140.392 172.16 139.024 172.16C137.632 172.16 136.528 172.58 135.712 173.42C134.92 174.236 134.524 175.424 134.524 176.984V188H129.484V168.056H134.524V170.468C135.172 169.628 136 168.968 137.008 168.488C138.04 168.008 139.168 167.768 140.392 167.768C141.952 167.768 143.344 168.104 144.568 168.776C145.792 169.424 146.74 170.36 147.412 171.584C148.06 170.432 148.996 169.508 150.22 168.812C151.468 168.116 152.812 167.768 154.252 167.768ZM185.747 177.596C185.747 178.316 185.699 178.964 185.603 179.54H171.023C171.143 180.98 171.647 182.108 172.535 182.924C173.423 183.74 174.515 184.148 175.811 184.148C177.683 184.148 179.015 183.344 179.807 181.736H185.243C184.667 183.656 183.563 185.24 181.931 186.488C180.299 187.712 178.295 188.324 175.919 188.324C173.999 188.324 172.271 187.904 170.735 187.064C169.223 186.2 168.035 184.988 167.171 183.428C166.331 181.868 165.911 180.068 165.911 178.028C165.911 175.964 166.331 174.152 167.171 172.592C168.011 171.032 169.187 169.832 170.699 168.992C172.211 168.152 173.951 167.732 175.919 167.732C177.815 167.732 179.507 168.14 180.995 168.956C182.507 169.772 183.671 170.936 184.487 172.448C185.327 173.936 185.747 175.652 185.747 177.596ZM180.527 176.156C180.503 174.86 180.035 173.828 179.123 173.06C178.211 172.268 177.095 171.872 175.775 171.872C174.527 171.872 173.471 172.256 172.607 173.024C171.767 173.768 171.251 174.812 171.059 176.156H180.527ZM188.129 177.956C188.129 175.94 188.525 174.152 189.317 172.592C190.133 171.032 191.237 169.832 192.629 168.992C194.021 168.152 195.569 167.732 197.273 167.732C198.569 167.732 199.805 168.02 200.981 168.596C202.157 169.148 203.093 169.892 203.789 170.828V161.36H208.901V188H203.789V185.048C203.165 186.032 202.289 186.824 201.161 187.424C200.033 188.024 198.725 188.324 197.237 188.324C195.557 188.324 194.021 187.892 192.629 187.028C191.237 186.164 190.133 184.952 189.317 183.392C188.525 181.808 188.129 179.996 188.129 177.956ZM203.825 178.028C203.825 176.804 203.585 175.76 203.105 174.896C202.625 174.008 201.977 173.336 201.161 172.88C200.345 172.4 199.469 172.16 198.533 172.16C197.597 172.16 196.733 172.388 195.941 172.844C195.149 173.3 194.501 173.972 193.997 174.86C193.517 175.724 193.277 176.756 193.277 177.956C193.277 179.156 193.517 180.212 193.997 181.124C194.501 182.012 195.149 182.696 195.941 183.176C196.757 183.656 197.621 183.896 198.533 183.896C199.469 183.896 200.345 183.668 201.161 183.212C201.977 182.732 202.625 182.06 203.105 181.196C203.585 180.308 203.825 179.252 203.825 178.028ZM216.056 188.252C215.144 188.252 214.388 187.976 213.788 187.424C213.212 186.848 212.924 186.14 212.924 185.3C212.924 184.46 213.212 183.764 213.788 183.212C214.388 182.636 215.144 182.348 216.056 182.348C216.944 182.348 217.676 182.636 218.252 183.212C218.828 183.764 219.116 184.46 219.116 185.3C219.116 186.14 218.828 186.848 218.252 187.424C217.676 187.976 216.944 188.252 216.056 188.252ZM225.731 165.68C224.843 165.68 224.099 165.404 223.499 164.852C222.923 164.276 222.635 163.568 222.635 162.728C222.635 161.888 222.923 161.192 223.499 160.64C224.099 160.064 224.843 159.776 225.731 159.776C226.619 159.776 227.351 160.064 227.927 160.64C228.527 161.192 228.827 161.888 228.827 162.728C228.827 163.568 228.527 164.276 227.927 164.852C227.351 165.404 226.619 165.68 225.731 165.68ZM228.215 168.056V188H223.175V168.056H228.215ZM242.051 188.324C240.131 188.324 238.403 187.904 236.867 187.064C235.331 186.2 234.119 184.988 233.231 183.428C232.367 181.868 231.935 180.068 231.935 178.028C231.935 175.988 232.379 174.188 233.267 172.628C234.179 171.068 235.415 169.868 236.975 169.028C238.535 168.164 240.275 167.732 242.195 167.732C244.115 167.732 245.855 168.164 247.415 169.028C248.975 169.868 250.199 171.068 251.087 172.628C251.999 174.188 252.455 175.988 252.455 178.028C252.455 180.068 251.987 181.868 251.051 183.428C250.139 184.988 248.891 186.2 247.307 187.064C245.747 187.904 243.995 188.324 242.051 188.324ZM242.051 183.932C242.963 183.932 243.815 183.716 244.607 183.284C245.423 182.828 246.071 182.156 246.551 181.268C247.031 180.38 247.271 179.3 247.271 178.028C247.271 176.132 246.767 174.68 245.759 173.672C244.775 172.64 243.563 172.124 242.123 172.124C240.683 172.124 239.471 172.64 238.487 173.672C237.527 174.68 237.047 176.132 237.047 178.028C237.047 179.924 237.515 181.388 238.451 182.42C239.411 183.428 240.611 183.932 242.051 183.932Z" fill="#21118D"/>
<rect x="1460" y="162" width="144" height="14" rx="7" fill="#EFEFEF"/>
<rect x="1516" y="179" width="88" height="10" rx="5" fill="#EFEFEF"/>
<rect x="474" y="478" width="60" height="60" rx="20" fill="#EFEFEF"/>
<rect x="544" y="509" width="144" height="20" rx="10" fill="#EFEFEF"/>
<rect x="544" y="492" width="88" height="10" rx="5" fill="#EFEFEF"/>
<rect x="474" y="1080" width="144" height="20" rx="10" fill="#EFEFEF"/>
<rect x="474" y="1132" width="387" height="24" rx="12" fill="#EFEFEF"/>
<rect x="474" y="1173" width="387" height="24" rx="12" fill="#EFEFEF"/>
<rect x="901" y="1132" width="230" height="24" rx="12" fill="#EFEFEF"/>
<rect x="901" y="1173" width="230" height="24" rx="12" fill="#EFEFEF"/>
<rect x="1171" y="1132" width="230" height="24" rx="12" fill="#EFEFEF"/>
<rect x="1171" y="1173" width="230" height="24" rx="12" fill="#EFEFEF"/>
<rect x="1441" y="1132" width="188" height="24" rx="12" fill="#EFEFEF"/>
<rect x="1441" y="1173" width="188" height="24" rx="12" fill="#EFEFEF"/>
<rect x="1425" y="666" width="144" height="20" rx="10" fill="#EFEFEF"/>
<rect x="476" y="676" width="144" height="20" rx="10" fill="#EFEFEF"/>
<rect x="476" y="724" width="850" height="210" rx="20" fill="#EFEFEF"/>
<rect x="1425" y="726" width="214" height="210" rx="20" fill="#EFEFEF"/>
<rect x="476" y="659" width="88" height="10" rx="5" fill="#EFEFEF"/>
<rect x="474" y="1063" width="88" height="10" rx="5" fill="#EFEFEF"/>
<rect x="1425" y="649" width="88" height="10" rx="5" fill="#EFEFEF"/>
<rect x="794" y="478" width="60" height="60" rx="20" fill="#EFEFEF"/>
<rect x="864" y="509" width="144" height="20" rx="10" fill="#EFEFEF"/>
<rect x="864" y="492" width="88" height="10" rx="5" fill="#EFEFEF"/>
<rect x="1110" y="478" width="60" height="60" rx="20" fill="#EFEFEF"/>
<rect x="1180" y="509" width="144" height="20" rx="10" fill="#EFEFEF"/>
<rect x="1180" y="492" width="88" height="10" rx="5" fill="#EFEFEF"/>
<rect x="1425" y="478" width="60" height="60" rx="20" fill="#EFEFEF"/>
<rect x="1495" y="509" width="144" height="20" rx="10" fill="#EFEFEF"/>
<rect x="1495" y="492" width="88" height="10" rx="5" fill="#EFEFEF"/>
<path d="M151.824 328.52H146.96L146.064 331H144.528L148.56 319.912H150.24L154.256 331H152.72L151.824 328.52ZM151.408 327.336L149.392 321.704L147.376 327.336H151.408ZM155.469 326.584C155.469 325.688 155.651 324.904 156.013 324.232C156.376 323.549 156.872 323.021 157.501 322.648C158.141 322.275 158.856 322.088 159.645 322.088C160.328 322.088 160.963 322.248 161.549 322.568C162.136 322.877 162.584 323.288 162.893 323.8V319.16H164.365V331H162.893V329.352C162.605 329.875 162.179 330.307 161.613 330.648C161.048 330.979 160.387 331.144 159.629 331.144C158.851 331.144 158.141 330.952 157.501 330.568C156.872 330.184 156.376 329.645 156.013 328.952C155.651 328.259 155.469 327.469 155.469 326.584ZM162.893 326.6C162.893 325.939 162.76 325.363 162.493 324.872C162.227 324.381 161.864 324.008 161.405 323.752C160.957 323.485 160.461 323.352 159.917 323.352C159.373 323.352 158.877 323.48 158.429 323.736C157.981 323.992 157.624 324.365 157.357 324.856C157.091 325.347 156.957 325.923 156.957 326.584C156.957 327.256 157.091 327.843 157.357 328.344C157.624 328.835 157.981 329.213 158.429 329.48C158.877 329.736 159.373 329.864 159.917 329.864C160.461 329.864 160.957 329.736 161.405 329.48C161.864 329.213 162.227 328.835 162.493 328.344C162.76 327.843 162.893 327.261 162.893 326.6ZM166.282 326.584C166.282 325.688 166.463 324.904 166.826 324.232C167.188 323.549 167.684 323.021 168.314 322.648C168.954 322.275 169.668 322.088 170.458 322.088C171.14 322.088 171.775 322.248 172.362 322.568C172.948 322.877 173.396 323.288 173.706 323.8V319.16H175.178V331H173.706V329.352C173.418 329.875 172.991 330.307 172.426 330.648C171.86 330.979 171.199 331.144 170.442 331.144C169.663 331.144 168.954 330.952 168.314 330.568C167.684 330.184 167.188 329.645 166.826 328.952C166.463 328.259 166.282 327.469 166.282 326.584ZM173.706 326.6C173.706 325.939 173.572 325.363 173.306 324.872C173.039 324.381 172.676 324.008 172.218 323.752C171.77 323.485 171.274 323.352 170.73 323.352C170.186 323.352 169.69 323.48 169.242 323.736C168.794 323.992 168.436 324.365 168.17 324.856C167.903 325.347 167.77 325.923 167.77 326.584C167.77 327.256 167.903 327.843 168.17 328.344C168.436 328.835 168.794 329.213 169.242 329.48C169.69 329.736 170.186 329.864 170.73 329.864C171.274 329.864 171.77 329.736 172.218 329.48C172.676 329.213 173.039 328.835 173.306 328.344C173.572 327.843 173.706 327.261 173.706 326.6ZM190.672 331H189.216L183.36 322.12V331H181.904V319.832H183.36L189.216 328.696V319.832H190.672V331ZM201.154 326.28C201.154 326.557 201.138 326.851 201.106 327.16H194.098C194.151 328.024 194.445 328.701 194.978 329.192C195.522 329.672 196.178 329.912 196.946 329.912C197.575 329.912 198.098 329.768 198.514 329.48C198.941 329.181 199.239 328.787 199.41 328.296H200.978C200.743 329.139 200.274 329.827 199.57 330.36C198.866 330.883 197.991 331.144 196.946 331.144C196.114 331.144 195.367 330.957 194.706 330.584C194.055 330.211 193.543 329.683 193.17 329C192.797 328.307 192.61 327.507 192.61 326.6C192.61 325.693 192.791 324.899 193.154 324.216C193.517 323.533 194.023 323.011 194.674 322.648C195.335 322.275 196.093 322.088 196.946 322.088C197.778 322.088 198.514 322.269 199.154 322.632C199.794 322.995 200.285 323.496 200.626 324.136C200.978 324.765 201.154 325.48 201.154 326.28ZM199.65 325.976C199.65 325.421 199.527 324.947 199.282 324.552C199.037 324.147 198.701 323.843 198.274 323.64C197.858 323.427 197.394 323.32 196.882 323.32C196.146 323.32 195.517 323.555 194.994 324.024C194.482 324.493 194.189 325.144 194.114 325.976H199.65ZM214.756 322.232L212.02 331H210.516L208.404 324.04L206.292 331H204.788L202.036 322.232H203.524L205.54 329.592L207.716 322.232H209.204L211.332 329.608L213.316 322.232H214.756ZM227.922 323.112C227.922 324.04 227.602 324.813 226.962 325.432C226.333 326.04 225.368 326.344 224.066 326.344H221.922V331H220.466V319.848H224.066C225.325 319.848 226.28 320.152 226.93 320.76C227.592 321.368 227.922 322.152 227.922 323.112ZM224.066 325.144C224.877 325.144 225.474 324.968 225.858 324.616C226.242 324.264 226.434 323.763 226.434 323.112C226.434 321.736 225.645 321.048 224.066 321.048H221.922V325.144H224.066ZM229.188 326.584C229.188 325.688 229.369 324.904 229.732 324.232C230.095 323.549 230.591 323.021 231.22 322.648C231.86 322.275 232.569 322.088 233.348 322.088C234.116 322.088 234.783 322.253 235.348 322.584C235.913 322.915 236.335 323.331 236.612 323.832V322.232H238.084V331H236.612V329.368C236.324 329.88 235.892 330.307 235.316 330.648C234.751 330.979 234.089 331.144 233.332 331.144C232.553 331.144 231.849 330.952 231.22 330.568C230.591 330.184 230.095 329.645 229.732 328.952C229.369 328.259 229.188 327.469 229.188 326.584ZM236.612 326.6C236.612 325.939 236.479 325.363 236.212 324.872C235.945 324.381 235.583 324.008 235.124 323.752C234.676 323.485 234.18 323.352 233.636 323.352C233.092 323.352 232.596 323.48 232.148 323.736C231.7 323.992 231.343 324.365 231.076 324.856C230.809 325.347 230.676 325.923 230.676 326.584C230.676 327.256 230.809 327.843 231.076 328.344C231.343 328.835 231.7 329.213 232.148 329.48C232.596 329.736 233.092 329.864 233.636 329.864C234.18 329.864 234.676 329.736 235.124 329.48C235.583 329.213 235.945 328.835 236.212 328.344C236.479 327.843 236.612 327.261 236.612 326.6ZM242.321 323.432V328.6C242.321 329.027 242.411 329.331 242.593 329.512C242.774 329.683 243.089 329.768 243.536 329.768H244.609V331H243.297C242.486 331 241.878 330.813 241.473 330.44C241.067 330.067 240.865 329.453 240.865 328.6V323.432H239.729V322.232H240.865V320.024H242.321V322.232H244.609V323.432H242.321ZM247.125 320.808C246.847 320.808 246.613 320.712 246.421 320.52C246.229 320.328 246.133 320.093 246.133 319.816C246.133 319.539 246.229 319.304 246.421 319.112C246.613 318.92 246.847 318.824 247.125 318.824C247.391 318.824 247.615 318.92 247.797 319.112C247.989 319.304 248.085 319.539 248.085 319.816C248.085 320.093 247.989 320.328 247.797 320.52C247.615 320.712 247.391 320.808 247.125 320.808ZM247.829 322.232V331H246.373V322.232H247.829ZM258.31 326.28C258.31 326.557 258.294 326.851 258.262 327.16H251.254C251.307 328.024 251.601 328.701 252.134 329.192C252.678 329.672 253.334 329.912 254.102 329.912C254.731 329.912 255.254 329.768 255.67 329.48C256.097 329.181 256.395 328.787 256.566 328.296H258.134C257.899 329.139 257.43 329.827 256.726 330.36C256.022 330.883 255.147 331.144 254.102 331.144C253.27 331.144 252.523 330.957 251.862 330.584C251.211 330.211 250.699 329.683 250.326 329C249.953 328.307 249.766 327.507 249.766 326.6C249.766 325.693 249.947 324.899 250.31 324.216C250.673 323.533 251.179 323.011 251.83 322.648C252.491 322.275 253.249 322.088 254.102 322.088C254.934 322.088 255.67 322.269 256.31 322.632C256.95 322.995 257.441 323.496 257.782 324.136C258.134 324.765 258.31 325.48 258.31 326.28ZM256.806 325.976C256.806 325.421 256.683 324.947 256.438 324.552C256.193 324.147 255.857 323.843 255.43 323.64C255.014 323.427 254.55 323.32 254.038 323.32C253.302 323.32 252.673 323.555 252.15 324.024C251.638 324.493 251.345 325.144 251.27 325.976H256.806ZM264.504 322.072C265.571 322.072 266.435 322.397 267.096 323.048C267.757 323.688 268.088 324.616 268.088 325.832V331H266.648V326.04C266.648 325.165 266.429 324.499 265.992 324.04C265.555 323.571 264.957 323.336 264.2 323.336C263.432 323.336 262.819 323.576 262.36 324.056C261.912 324.536 261.688 325.235 261.688 326.152V331H260.232V322.232H261.688V323.48C261.976 323.032 262.365 322.685 262.856 322.44C263.357 322.195 263.907 322.072 264.504 322.072ZM272.242 323.432V328.6C272.242 329.027 272.333 329.331 272.514 329.512C272.696 329.683 273.01 329.768 273.458 329.768H274.53V331H273.218C272.408 331 271.8 330.813 271.394 330.44C270.989 330.067 270.786 329.453 270.786 328.6V323.432H269.65V322.232H270.786V320.024H272.242V322.232H274.53V323.432H272.242Z" fill="white"/>
<path d="M572.282 48.956C573.026 48.956 573.698 49.118 574.298 49.442C574.898 49.754 575.366 50.228 575.702 50.864C576.05 51.5 576.224 52.274 576.224 53.186V59H574.604V53.42C574.604 52.436 574.358 51.686 573.866 51.17C573.374 50.642 572.702 50.378 571.85 50.378C570.986 50.378 570.296 50.648 569.78 51.188C569.276 51.728 569.024 52.514 569.024 53.546V59H567.386V45.68H569.024V50.54C569.348 50.036 569.792 49.646 570.356 49.37C570.932 49.094 571.574 48.956 572.282 48.956ZM580.898 50.486V56.3C580.898 56.78 581 57.122 581.204 57.326C581.408 57.518 581.762 57.614 582.266 57.614H583.472V59H581.996C581.084 59 580.4 58.79 579.944 58.37C579.488 57.95 579.26 57.26 579.26 56.3V50.486H577.982V49.136H579.26V46.652H580.898V49.136H583.472V50.486H580.898ZM587.454 50.486V56.3C587.454 56.78 587.556 57.122 587.76 57.326C587.964 57.518 588.318 57.614 588.822 57.614H590.028V59H588.552C587.64 59 586.956 58.79 586.5 58.37C586.044 57.95 585.816 57.26 585.816 56.3V50.486H584.538V49.136H585.816V46.652H587.454V49.136H590.028V50.486H587.454ZM593.651 50.954C593.975 50.39 594.455 49.922 595.091 49.55C595.739 49.166 596.489 48.974 597.341 48.974C598.217 48.974 599.009 49.184 599.717 49.604C600.437 50.024 601.001 50.618 601.409 51.386C601.817 52.142 602.021 53.024 602.021 54.032C602.021 55.028 601.817 55.916 601.409 56.696C601.001 57.476 600.437 58.082 599.717 58.514C599.009 58.946 598.217 59.162 597.341 59.162C596.501 59.162 595.757 58.976 595.109 58.604C594.473 58.22 593.987 57.746 593.651 57.182V63.68H592.013V49.136H593.651V50.954ZM600.347 54.032C600.347 53.288 600.197 52.64 599.897 52.088C599.597 51.536 599.189 51.116 598.673 50.828C598.169 50.54 597.611 50.396 596.999 50.396C596.399 50.396 595.841 50.546 595.325 50.846C594.821 51.134 594.413 51.56 594.101 52.124C593.801 52.676 593.651 53.318 593.651 54.05C593.651 54.794 593.801 55.448 594.101 56.012C594.413 56.564 594.821 56.99 595.325 57.29C595.841 57.578 596.399 57.722 596.999 57.722C597.611 57.722 598.169 57.578 598.673 57.29C599.189 56.99 599.597 56.564 599.897 56.012C600.197 55.448 600.347 54.788 600.347 54.032ZM607.669 59.162C606.913 59.162 606.235 59.036 605.635 58.784C605.035 58.52 604.561 58.16 604.213 57.704C603.865 57.236 603.673 56.702 603.637 56.102H605.329C605.377 56.594 605.605 56.996 606.013 57.308C606.433 57.62 606.979 57.776 607.651 57.776C608.275 57.776 608.767 57.638 609.127 57.362C609.487 57.086 609.667 56.738 609.667 56.318C609.667 55.886 609.475 55.568 609.091 55.364C608.707 55.148 608.113 54.938 607.309 54.734C606.577 54.542 605.977 54.35 605.509 54.158C605.053 53.954 604.657 53.66 604.321 53.276C603.997 52.88 603.835 52.364 603.835 51.728C603.835 51.224 603.985 50.762 604.285 50.342C604.585 49.922 605.011 49.592 605.563 49.352C606.115 49.1 606.745 48.974 607.453 48.974C608.545 48.974 609.427 49.25 610.099 49.802C610.771 50.354 611.131 51.11 611.179 52.07H609.541C609.505 51.554 609.295 51.14 608.911 50.828C608.539 50.516 608.035 50.36 607.399 50.36C606.811 50.36 606.343 50.486 605.995 50.738C605.647 50.99 605.473 51.32 605.473 51.728C605.473 52.052 605.575 52.322 605.779 52.538C605.995 52.742 606.259 52.91 606.571 53.042C606.895 53.162 607.339 53.3 607.903 53.456C608.611 53.648 609.187 53.84 609.631 54.032C610.075 54.212 610.453 54.488 610.765 54.86C611.089 55.232 611.257 55.718 611.269 56.318C611.269 56.858 611.119 57.344 610.819 57.776C610.519 58.208 610.093 58.55 609.541 58.802C609.001 59.042 608.377 59.162 607.669 59.162ZM614.103 59.108C613.791 59.108 613.527 59 613.311 58.784C613.095 58.568 612.987 58.304 612.987 57.992C612.987 57.68 613.095 57.416 613.311 57.2C613.527 56.984 613.791 56.876 614.103 56.876C614.403 56.876 614.655 56.984 614.859 57.2C615.075 57.416 615.183 57.68 615.183 57.992C615.183 58.304 615.075 58.568 614.859 58.784C614.655 59 614.403 59.108 614.103 59.108ZM614.103 51.404C613.791 51.404 613.527 51.296 613.311 51.08C613.095 50.864 612.987 50.6 612.987 50.288C612.987 49.976 613.095 49.712 613.311 49.496C613.527 49.28 613.791 49.172 614.103 49.172C614.403 49.172 614.655 49.28 614.859 49.496C615.075 49.712 615.183 49.976 615.183 50.288C615.183 50.6 615.075 50.864 614.859 51.08C614.655 51.296 614.403 51.404 614.103 51.404ZM623.533 42.044L618.601 62.06H616.981L621.895 42.044H623.533ZM632.094 42.044L627.162 62.06H625.542L630.456 42.044H632.094ZM646.396 48.956C647.164 48.956 647.848 49.118 648.448 49.442C649.048 49.754 649.522 50.228 649.87 50.864C650.218 51.5 650.392 52.274 650.392 53.186V59H648.772V53.42C648.772 52.436 648.526 51.686 648.034 51.17C647.554 50.642 646.9 50.378 646.072 50.378C645.22 50.378 644.542 50.654 644.038 51.206C643.534 51.746 643.282 52.532 643.282 53.564V59H641.662V53.42C641.662 52.436 641.416 51.686 640.924 51.17C640.444 50.642 639.79 50.378 638.962 50.378C638.11 50.378 637.432 50.654 636.928 51.206C636.424 51.746 636.172 52.532 636.172 53.564V59H634.534V49.136H636.172V50.558C636.496 50.042 636.928 49.646 637.468 49.37C638.02 49.094 638.626 48.956 639.286 48.956C640.114 48.956 640.846 49.142 641.482 49.514C642.118 49.886 642.592 50.432 642.904 51.152C643.18 50.456 643.636 49.916 644.272 49.532C644.908 49.148 645.616 48.956 646.396 48.956ZM662.079 53.69C662.079 54.002 662.061 54.332 662.025 54.68H654.141C654.201 55.652 654.531 56.414 655.131 56.966C655.743 57.506 656.481 57.776 657.345 57.776C658.053 57.776 658.641 57.614 659.109 57.29C659.589 56.954 659.925 56.51 660.117 55.958H661.881C661.617 56.906 661.089 57.68 660.297 58.28C659.505 58.868 658.521 59.162 657.345 59.162C656.409 59.162 655.569 58.952 654.825 58.532C654.093 58.112 653.517 57.518 653.097 56.75C652.677 55.97 652.467 55.07 652.467 54.05C652.467 53.03 652.671 52.136 653.079 51.368C653.487 50.6 654.057 50.012 654.789 49.604C655.533 49.184 656.385 48.974 657.345 48.974C658.281 48.974 659.109 49.178 659.829 49.586C660.549 49.994 661.101 50.558 661.485 51.278C661.881 51.986 662.079 52.79 662.079 53.69ZM660.387 53.348C660.387 52.724 660.249 52.19 659.973 51.746C659.697 51.29 659.319 50.948 658.839 50.72C658.371 50.48 657.849 50.36 657.273 50.36C656.445 50.36 655.737 50.624 655.149 51.152C654.573 51.68 654.243 52.412 654.159 53.348H660.387ZM663.629 54.032C663.629 53.024 663.833 52.142 664.241 51.386C664.649 50.618 665.207 50.024 665.915 49.604C666.635 49.184 667.439 48.974 668.327 48.974C669.095 48.974 669.809 49.154 670.469 49.514C671.129 49.862 671.633 50.324 671.981 50.9V45.68H673.637V59H671.981V57.146C671.657 57.734 671.177 58.22 670.541 58.604C669.905 58.976 669.161 59.162 668.309 59.162C667.433 59.162 666.635 58.946 665.915 58.514C665.207 58.082 664.649 57.476 664.241 56.696C663.833 55.916 663.629 55.028 663.629 54.032ZM671.981 54.05C671.981 53.306 671.831 52.658 671.531 52.106C671.231 51.554 670.823 51.134 670.307 50.846C669.803 50.546 669.245 50.396 668.633 50.396C668.021 50.396 667.463 50.54 666.959 50.828C666.455 51.116 666.053 51.536 665.753 52.088C665.453 52.64 665.303 53.288 665.303 54.032C665.303 54.788 665.453 55.448 665.753 56.012C666.053 56.564 666.455 56.99 666.959 57.29C667.463 57.578 668.021 57.722 668.633 57.722C669.245 57.722 669.803 57.578 670.307 57.29C670.823 56.99 671.231 56.564 671.531 56.012C671.831 55.448 671.981 54.794 671.981 54.05ZM676.928 59.108C676.616 59.108 676.352 59 676.136 58.784C675.92 58.568 675.812 58.304 675.812 57.992C675.812 57.68 675.92 57.416 676.136 57.2C676.352 56.984 676.616 56.876 676.928 56.876C677.228 56.876 677.48 56.984 677.684 57.2C677.9 57.416 678.008 57.68 678.008 57.992C678.008 58.304 677.9 58.568 677.684 58.784C677.48 59 677.228 59.108 676.928 59.108ZM681.031 47.534C680.719 47.534 680.455 47.426 680.239 47.21C680.023 46.994 679.915 46.73 679.915 46.418C679.915 46.106 680.023 45.842 680.239 45.626C680.455 45.41 680.719 45.302 681.031 45.302C681.331 45.302 681.583 45.41 681.787 45.626C682.003 45.842 682.111 46.106 682.111 46.418C682.111 46.73 682.003 46.994 681.787 47.21C681.583 47.426 681.331 47.534 681.031 47.534ZM681.823 49.136V59H680.185V49.136H681.823ZM688.917 59.162C687.993 59.162 687.153 58.952 686.397 58.532C685.653 58.112 685.065 57.518 684.633 56.75C684.213 55.97 684.003 55.07 684.003 54.05C684.003 53.042 684.219 52.154 684.651 51.386C685.095 50.606 685.695 50.012 686.451 49.604C687.207 49.184 688.053 48.974 688.989 48.974C689.925 48.974 690.771 49.184 691.527 49.604C692.283 50.012 692.877 50.6 693.309 51.368C693.753 52.136 693.975 53.03 693.975 54.05C693.975 55.07 693.747 55.97 693.291 56.75C692.847 57.518 692.241 58.112 691.473 58.532C690.705 58.952 689.853 59.162 688.917 59.162ZM688.917 57.722C689.505 57.722 690.057 57.584 690.573 57.308C691.089 57.032 691.503 56.618 691.815 56.066C692.139 55.514 692.301 54.842 692.301 54.05C692.301 53.258 692.145 52.586 691.833 52.034C691.521 51.482 691.113 51.074 690.609 50.81C690.105 50.534 689.559 50.396 688.971 50.396C688.371 50.396 687.819 50.534 687.315 50.81C686.823 51.074 686.427 51.482 686.127 52.034C685.827 52.586 685.677 53.258 685.677 54.05C685.677 54.854 685.821 55.532 686.109 56.084C686.409 56.636 686.805 57.05 687.297 57.326C687.789 57.59 688.329 57.722 688.917 57.722Z" fill="white"/>
<ellipse cx="118.25" cy="318.4" rx="5" ry="5.37153" stroke="white" stroke-width="2" stroke-linecap="round" stroke-linejoin="round"/>
<path d="M110.75 337.201V334.515C110.75 331.548 112.989 329.143 115.75 329.143H120.75C123.511 329.143 125.75 331.548 125.75 334.515V337.201" stroke="white" stroke-width="2" stroke-linecap="round" stroke-linejoin="round"/>
<path d="M127 313.203C129.212 313.812 130.76 315.953 130.76 318.407C130.76 320.86 129.212 323.002 127 323.611" stroke="white" stroke-width="2" stroke-linecap="round" stroke-linejoin="round"/>
<path d="M133.25 337.201V334.515C133.237 332.077 131.697 329.954 129.5 329.345" stroke="white" stroke-width="2" stroke-linecap="round" stroke-linejoin="round"/>
<circle cx="69" cy="55" r="11" fill="#FE8660"/>
<circle cx="107" cy="55" r="11" fill="#FEDB60"/>
<circle cx="145" cy="55" r="11" fill="#9BF07D"/>
<rect x="497.5" y="49.5" width="21" height="15" rx="2" stroke="#5A636D" stroke-width="2" stroke-linecap="round" stroke-linejoin="round"/>
<circle cx="508" cy="57" r="1.5" stroke="#5A636D" stroke-width="2" stroke-linecap="round" stroke-linejoin="round"/>
<path d="M502 49.5V43.5C502 40.1863 504.686 37.5 508 37.5C511.314 37.5 514 40.1863 514 43.5V49.5" stroke="#5A636D" stroke-width="2" stroke-linecap="round" stroke-linejoin="round"/>
<path d="M1223 54C1223.99 55.0078 1225.34 55.5758 1226.75 55.5758C1228.16 55.5758 1229.51 55.0078 1230.5 54L1236.5 48C1238.57 45.9289 1238.57 42.5711 1236.5 40.5C1234.43 38.4289 1231.07 38.4289 1229 40.5L1228.25 41.25" stroke="#4F5762" stroke-width="2" stroke-linecap="round" stroke-linejoin="round"/>
<path d="M1229 48C1228.01 46.9922 1226.66 46.4243 1225.25 46.4243C1223.84 46.4243 1222.49 46.9922 1221.5 48L1215.5 54C1213.43 56.0711 1213.43 59.429 1215.5 61.5C1217.57 63.5711 1220.93 63.5711 1223 61.5L1223.75 60.75" stroke="#4F5762" stroke-width="2" stroke-linecap="round" stroke-linejoin="round"/>
<path d="M1232 64.5V61.5" stroke="#4F5762" stroke-width="2" stroke-linecap="round" stroke-linejoin="round"/>
<path d="M1236.5 57H1239.5" stroke="#4F5762" stroke-width="2" stroke-linecap="round" stroke-linejoin="round"/>
<path d="M1212.5 45H1215.5" stroke="#4F5762" stroke-width="2" stroke-linecap="round" stroke-linejoin="round"/>
<path d="M1220 37.5V40.5" stroke="#4F5762" stroke-width="2" stroke-linecap="round" stroke-linejoin="round"/>
</g>
<defs>
<filter id="filter0_d_106_2" x="439" y="440" width="287" height="143" filterUnits="userSpaceOnUse" color-interpolation-filters="sRGB">
<feFlood flood-opacity="0" result="BackgroundImageFix"/>
<feColorMatrix in="SourceAlpha" type="matrix" values="0 0 0 0 0 0 0 0 0 0 0 0 0 0 0 0 0 0 127 0" result="hardAlpha"/>
<feOffset dy="4"/>
<feGaussianBlur stdDeviation="2"/>
<feComposite in2="hardAlpha" operator="out"/>
<feColorMatrix type="matrix" values="0 0 0 0 0 0 0 0 0 0 0 0 0 0 0 0 0 0 0.1 0"/>
<feBlend mode="normal" in2="BackgroundImageFix" result="effect1_dropShadow_106_2"/>
<feBlend mode="normal" in="SourceGraphic" in2="effect1_dropShadow_106_2" result="shape"/>
</filter>
<filter id="filter1_d_106_2" x="439" y="621" width="924" height="359" filterUnits="userSpaceOnUse" color-interpolation-filters="sRGB">
<feFlood flood-opacity="0" result="BackgroundImageFix"/>
<feColorMatrix in="SourceAlpha" type="matrix" values="0 0 0 0 0 0 0 0 0 0 0 0 0 0 0 0 0 0 127 0" result="hardAlpha"/>
<feOffset dy="4"/>
<feGaussianBlur stdDeviation="2"/>
<feComposite in2="hardAlpha" operator="out"/>
<feColorMatrix type="matrix" values="0 0 0 0 0 0 0 0 0 0 0 0 0 0 0 0 0 0 0.1 0"/>
<feBlend mode="normal" in2="BackgroundImageFix" result="effect1_dropShadow_106_2"/>
<feBlend mode="normal" in="SourceGraphic" in2="effect1_dropShadow_106_2" result="shape"/>
</filter>
<filter id="filter2_d_106_2" x="439" y="1031" width="1236" height="359" filterUnits="userSpaceOnUse" color-interpolation-filters="sRGB">
<feFlood flood-opacity="0" result="BackgroundImageFix"/>
<feColorMatrix in="SourceAlpha" type="matrix" values="0 0 0 0 0 0 0 0 0 0 0 0 0 0 0 0 0 0 127 0" result="hardAlpha"/>
<feOffset dy="4"/>
<feGaussianBlur stdDeviation="2"/>
<feComposite in2="hardAlpha" operator="out"/>
<feColorMatrix type="matrix" values="0 0 0 0 0 0 0 0 0 0 0 0 0 0 0 0 0 0 0.1 0"/>
<feBlend mode="normal" in2="BackgroundImageFix" result="effect1_dropShadow_106_2"/>
<feBlend mode="normal" in="SourceGraphic" in2="effect1_dropShadow_106_2" result="shape"/>
</filter>
<filter id="filter3_d_106_2" x="1389" y="621" width="286" height="359" filterUnits="userSpaceOnUse" color-interpolation-filters="sRGB">
<feFlood flood-opacity="0" result="BackgroundImageFix"/>
<feColorMatrix in="SourceAlpha" type="matrix" values="0 0 0 0 0 0 0 0 0 0 0 0 0 0 0 0 0 0 127 0" result="hardAlpha"/>
<feOffset dy="4"/>
<feGaussianBlur stdDeviation="2"/>
<feComposite in2="hardAlpha" operator="out"/>
<feColorMatrix type="matrix" values="0 0 0 0 0 0 0 0 0 0 0 0 0 0 0 0 0 0 0.1 0"/>
<feBlend mode="normal" in2="BackgroundImageFix" result="effect1_dropShadow_106_2"/>
<feBlend mode="normal" in="SourceGraphic" in2="effect1_dropShadow_106_2" result="shape"/>
</filter>
<filter id="filter4_d_106_2" x="757" y="440" width="288" height="143" filterUnits="userSpaceOnUse" color-interpolation-filters="sRGB">
<feFlood flood-opacity="0" result="BackgroundImageFix"/>
<feColorMatrix in="SourceAlpha" type="matrix" values="0 0 0 0 0 0 0 0 0 0 0 0 0 0 0 0 0 0 127 0" result="hardAlpha"/>
<feOffset dy="4"/>
<feGaussianBlur stdDeviation="2"/>
<feComposite in2="hardAlpha" operator="out"/>
<feColorMatrix type="matrix" values="0 0 0 0 0 0 0 0 0 0 0 0 0 0 0 0 0 0 0.1 0"/>
<feBlend mode="normal" in2="BackgroundImageFix" result="effect1_dropShadow_106_2"/>
<feBlend mode="normal" in="SourceGraphic" in2="effect1_dropShadow_106_2" result="shape"/>
</filter>
<filter id="filter5_d_106_2" x="1076" y="440" width="287" height="143" filterUnits="userSpaceOnUse" color-interpolation-filters="sRGB">
<feFlood flood-opacity="0" result="BackgroundImageFix"/>
<feColorMatrix in="SourceAlpha" type="matrix" values="0 0 0 0 0 0 0 0 0 0 0 0 0 0 0 0 0 0 127 0" result="hardAlpha"/>
<feOffset dy="4"/>
<feGaussianBlur stdDeviation="2"/>
<feComposite in2="hardAlpha" operator="out"/>
<feColorMatrix type="matrix" values="0 0 0 0 0 0 0 0 0 0 0 0 0 0 0 0 0 0 0.1 0"/>
<feBlend mode="normal" in2="BackgroundImageFix" result="effect1_dropShadow_106_2"/>
<feBlend mode="normal" in="SourceGraphic" in2="effect1_dropShadow_106_2" result="shape"/>
</filter>
<filter id="filter6_d_106_2" x="1389" y="440" width="287" height="143" filterUnits="userSpaceOnUse" color-interpolation-filters="sRGB">
<feFlood flood-opacity="0" result="BackgroundImageFix"/>
<feColorMatrix in="SourceAlpha" type="matrix" values="0 0 0 0 0 0 0 0 0 0 0 0 0 0 0 0 0 0 127 0" result="hardAlpha"/>
<feOffset dy="4"/>
<feGaussianBlur stdDeviation="2"/>
<feComposite in2="hardAlpha" operator="out"/>
<feColorMatrix type="matrix" values="0 0 0 0 0 0 0 0 0 0 0 0 0 0 0 0 0 0 0.1 0"/>
<feBlend mode="normal" in2="BackgroundImageFix" result="effect1_dropShadow_106_2"/>
<feBlend mode="normal" in="SourceGraphic" in2="effect1_dropShadow_106_2" result="shape"/>
</filter>
<clipPath id="clip0_106_2">
<rect width="1728" height="1200" rx="30" fill="white"/>
</clipPath>
</defs>
</svg>
