<svg width="1728" height="600" viewBox="0 0 1728 600" fill="none" xmlns="http://www.w3.org/2000/svg">
<g clip-path="url(#clip0_117_120)">
<path d="M0 30C0 13.4315 13.4315 0 30 0H1698C1714.57 0 1728 13.4315 1728 30V600H0V30Z" fill="#F8F8F8"/>
<rect x="0.5" y="109.5" width="389" height="1116" fill="white" stroke="#E5E7EB"/>
<rect x="0.5" y="109.5" width="1727" height="131" fill="white" stroke="#E5E7EB"/>
<rect width="1728" height="109" fill="#1B2530"/>
<rect x="51" y="295" width="280" height="60" rx="15" fill="#21118D"/>
<rect x="443" y="281" width="229" height="50" rx="25" fill="#EFEFEF"/>
<rect x="435" y="150" width="477" height="60" rx="30" fill="#EFEFEF"/>
<rect x="462" y="21" width="804" height="60" rx="30" fill="#2F3741"/>
<rect x="443" y="350" width="1228" height="50" rx="25" fill="#EFEFEF"/>
<g filter="url(#filter0_d_117_120)">
<rect x="443" y="440" width="279" height="135" rx="20" fill="white"/>
</g>
<g filter="url(#filter1_d_117_120)">
<rect x="761" y="440" width="280" height="135" rx="20" fill="white"/>
</g>
<g filter="url(#filter2_d_117_120)">
<rect x="1080" y="440" width="279" height="135" rx="20" fill="white"/>
</g>
<g filter="url(#filter3_d_117_120)">
<rect x="1393" y="440" width="279" height="135" rx="20" fill="white"/>
</g>
<rect x="51" y="406" width="50" height="50" rx="25" fill="#EFEFEF"/>
<rect x="118" y="419" width="213" height="24" rx="12" fill="#EFEFEF"/>
<rect x="51" y="484" width="50" height="50" rx="25" fill="#EFEFEF"/>
<rect x="118" y="497" width="213" height="24" rx="12" fill="#EFEFEF"/>
<rect x="51" y="562" width="50" height="50" rx="25" fill="#EFEFEF"/>
<rect x="118" y="575" width="213" height="24" rx="12" fill="#EFEFEF"/>
<circle cx="1647" cy="175" r="30" fill="white" stroke="#98A3E3" stroke-width="2"/>
<circle cx="1647" cy="175" r="25" fill="#E7E7E7"/>
<path d="M154.252 167.768C156.7 167.768 158.668 168.524 160.156 170.036C161.668 171.524 162.424 173.612 162.424 176.3V188H157.384V176.984C157.384 175.424 156.988 174.236 156.196 173.42C155.404 172.58 154.324 172.16 152.956 172.16C151.588 172.16 150.496 172.58 149.68 173.42C148.888 174.236 148.492 175.424 148.492 176.984V188H143.452V176.984C143.452 175.424 143.056 174.236 142.264 173.42C141.472 172.58 140.392 172.16 139.024 172.16C137.632 172.16 136.528 172.58 135.712 173.42C134.92 174.236 134.524 175.424 134.524 176.984V188H129.484V168.056H134.524V170.468C135.172 169.628 136 168.968 137.008 168.488C138.04 168.008 139.168 167.768 140.392 167.768C141.952 167.768 143.344 168.104 144.568 168.776C145.792 169.424 146.74 170.36 147.412 171.584C148.06 170.432 148.996 169.508 150.22 168.812C151.468 168.116 152.812 167.768 154.252 167.768ZM185.747 177.596C185.747 178.316 185.699 178.964 185.603 179.54H171.023C171.143 180.98 171.647 182.108 172.535 182.924C173.423 183.74 174.515 184.148 175.811 184.148C177.683 184.148 179.015 183.344 179.807 181.736H185.243C184.667 183.656 183.563 185.24 181.931 186.488C180.299 187.712 178.295 188.324 175.919 188.324C173.999 188.324 172.271 187.904 170.735 187.064C169.223 186.2 168.035 184.988 167.171 183.428C166.331 181.868 165.911 180.068 165.911 178.028C165.911 175.964 166.331 174.152 167.171 172.592C168.011 171.032 169.187 169.832 170.699 168.992C172.211 168.152 173.951 167.732 175.919 167.732C177.815 167.732 179.507 168.14 180.995 168.956C182.507 169.772 183.671 170.936 184.487 172.448C185.327 173.936 185.747 175.652 185.747 177.596ZM180.527 176.156C180.503 174.86 180.035 173.828 179.123 173.06C178.211 172.268 177.095 171.872 175.775 171.872C174.527 171.872 173.471 172.256 172.607 173.024C171.767 173.768 171.251 174.812 171.059 176.156H180.527ZM188.129 177.956C188.129 175.94 188.525 174.152 189.317 172.592C190.133 171.032 191.237 169.832 192.629 168.992C194.021 168.152 195.569 167.732 197.273 167.732C198.569 167.732 199.805 168.02 200.981 168.596C202.157 169.148 203.093 169.892 203.789 170.828V161.36H208.901V188H203.789V185.048C203.165 186.032 202.289 186.824 201.161 187.424C200.033 188.024 198.725 188.324 197.237 188.324C195.557 188.324 194.021 187.892 192.629 187.028C191.237 186.164 190.133 184.952 189.317 183.392C188.525 181.808 188.129 179.996 188.129 177.956ZM203.825 178.028C203.825 176.804 203.585 175.76 203.105 174.896C202.625 174.008 201.977 173.336 201.161 172.88C200.345 172.4 199.469 172.16 198.533 172.16C197.597 172.16 196.733 172.388 195.941 172.844C195.149 173.3 194.501 173.972 193.997 174.86C193.517 175.724 193.277 176.756 193.277 177.956C193.277 179.156 193.517 180.212 193.997 181.124C194.501 182.012 195.149 182.696 195.941 183.176C196.757 183.656 197.621 183.896 198.533 183.896C199.469 183.896 200.345 183.668 201.161 183.212C201.977 182.732 202.625 182.06 203.105 181.196C203.585 180.308 203.825 179.252 203.825 178.028ZM216.056 188.252C215.144 188.252 214.388 187.976 213.788 187.424C213.212 186.848 212.924 186.14 212.924 185.3C212.924 184.46 213.212 183.764 213.788 183.212C214.388 182.636 215.144 182.348 216.056 182.348C216.944 182.348 217.676 182.636 218.252 183.212C218.828 183.764 219.116 184.46 219.116 185.3C219.116 186.14 218.828 186.848 218.252 187.424C217.676 187.976 216.944 188.252 216.056 188.252ZM225.731 165.68C224.843 165.68 224.099 165.404 223.499 164.852C222.923 164.276 222.635 163.568 222.635 162.728C222.635 161.888 222.923 161.192 223.499 160.64C224.099 160.064 224.843 159.776 225.731 159.776C226.619 159.776 227.351 160.064 227.927 160.64C228.527 161.192 228.827 161.888 228.827 162.728C228.827 163.568 228.527 164.276 227.927 164.852C227.351 165.404 226.619 165.68 225.731 165.68ZM228.215 168.056V188H223.175V168.056H228.215ZM242.051 188.324C240.131 188.324 238.403 187.904 236.867 187.064C235.331 186.2 234.119 184.988 233.231 183.428C232.367 181.868 231.935 180.068 231.935 178.028C231.935 175.988 232.379 174.188 233.267 172.628C234.179 171.068 235.415 169.868 236.975 169.028C238.535 168.164 240.275 167.732 242.195 167.732C244.115 167.732 245.855 168.164 247.415 169.028C248.975 169.868 250.199 171.068 251.087 172.628C251.999 174.188 252.455 175.988 252.455 178.028C252.455 180.068 251.987 181.868 251.051 183.428C250.139 184.988 248.891 186.2 247.307 187.064C245.747 187.904 243.995 188.324 242.051 188.324ZM242.051 183.932C242.963 183.932 243.815 183.716 244.607 183.284C245.423 182.828 246.071 182.156 246.551 181.268C247.031 180.38 247.271 179.3 247.271 178.028C247.271 176.132 246.767 174.68 245.759 173.672C244.775 172.64 243.563 172.124 242.123 172.124C240.683 172.124 239.471 172.64 238.487 173.672C237.527 174.68 237.047 176.132 237.047 178.028C237.047 179.924 237.515 181.388 238.451 182.42C239.411 183.428 240.611 183.932 242.051 183.932Z" fill="#21118D"/>
<rect x="1460" y="162" width="144" height="14" rx="7" fill="#EFEFEF"/>
<rect x="1516" y="179" width="88" height="10" rx="5" fill="#EFEFEF"/>
<rect x="474" y="478" width="60" height="60" rx="20" fill="#EFEFEF"/>
<rect x="544" y="509" width="144" height="20" rx="10" fill="#EFEFEF"/>
<rect x="544" y="492" width="88" height="10" rx="5" fill="#EFEFEF"/>
<rect x="794" y="478" width="60" height="60" rx="20" fill="#EFEFEF"/>
<rect x="864" y="509" width="144" height="20" rx="10" fill="#EFEFEF"/>
<rect x="864" y="492" width="88" height="10" rx="5" fill="#EFEFEF"/>
<rect x="1110" y="478" width="60" height="60" rx="20" fill="#EFEFEF"/>
<rect x="1180" y="509" width="144" height="20" rx="10" fill="#EFEFEF"/>
<rect x="1180" y="492" width="88" height="10" rx="5" fill="#EFEFEF"/>
<rect x="1425" y="478" width="60" height="60" rx="20" fill="#EFEFEF"/>
<rect x="1495" y="509" width="144" height="20" rx="10" fill="#EFEFEF"/>
<rect x="1495" y="492" width="88" height="10" rx="5" fill="#EFEFEF"/>
<path d="M151.824 328.52H146.96L146.064 331H144.528L148.56 319.912H150.24L154.256 331H152.72L151.824 328.52ZM151.408 327.336L149.392 321.704L147.376 327.336H151.408ZM155.469 326.584C155.469 325.688 155.651 324.904 156.013 324.232C156.376 323.549 156.872 323.021 157.501 322.648C158.141 322.275 158.856 322.088 159.645 322.088C160.328 322.088 160.963 322.248 161.549 322.568C162.136 322.877 162.584 323.288 162.893 323.8V319.16H164.365V331H162.893V329.352C162.605 329.875 162.179 330.307 161.613 330.648C161.048 330.979 160.387 331.144 159.629 331.144C158.851 331.144 158.141 330.952 157.501 330.568C156.872 330.184 156.376 329.645 156.013 328.952C155.651 328.259 155.469 327.469 155.469 326.584ZM162.893 326.6C162.893 325.939 162.76 325.363 162.493 324.872C162.227 324.381 161.864 324.008 161.405 323.752C160.957 323.485 160.461 323.352 159.917 323.352C159.373 323.352 158.877 323.48 158.429 323.736C157.981 323.992 157.624 324.365 157.357 324.856C157.091 325.347 156.957 325.923 156.957 326.584C156.957 327.256 157.091 327.843 157.357 328.344C157.624 328.835 157.981 329.213 158.429 329.48C158.877 329.736 159.373 329.864 159.917 329.864C160.461 329.864 160.957 329.736 161.405 329.48C161.864 329.213 162.227 328.835 162.493 328.344C162.76 327.843 162.893 327.261 162.893 326.6ZM166.282 326.584C166.282 325.688 166.463 324.904 166.826 324.232C167.188 323.549 167.684 323.021 168.314 322.648C168.954 322.275 169.668 322.088 170.458 322.088C171.14 322.088 171.775 322.248 172.362 322.568C172.948 322.877 173.396 323.288 173.706 323.8V319.16H175.178V331H173.706V329.352C173.418 329.875 172.991 330.307 172.426 330.648C171.86 330.979 171.199 331.144 170.442 331.144C169.663 331.144 168.954 330.952 168.314 330.568C167.684 330.184 167.188 329.645 166.826 328.952C166.463 328.259 166.282 327.469 166.282 326.584ZM173.706 326.6C173.706 325.939 173.572 325.363 173.306 324.872C173.039 324.381 172.676 324.008 172.218 323.752C171.77 323.485 171.274 323.352 170.73 323.352C170.186 323.352 169.69 323.48 169.242 323.736C168.794 323.992 168.436 324.365 168.17 324.856C167.903 325.347 167.77 325.923 167.77 326.584C167.77 327.256 167.903 327.843 168.17 328.344C168.436 328.835 168.794 329.213 169.242 329.48C169.69 329.736 170.186 329.864 170.73 329.864C171.274 329.864 171.77 329.736 172.218 329.48C172.676 329.213 173.039 328.835 173.306 328.344C173.572 327.843 173.706 327.261 173.706 326.6ZM190.672 331H189.216L183.36 322.12V331H181.904V319.832H183.36L189.216 328.696V319.832H190.672V331ZM201.154 326.28C201.154 326.557 201.138 326.851 201.106 327.16H194.098C194.151 328.024 194.445 328.701 194.978 329.192C195.522 329.672 196.178 329.912 196.946 329.912C197.575 329.912 198.098 329.768 198.514 329.48C198.941 329.181 199.239 328.787 199.41 328.296H200.978C200.743 329.139 200.274 329.827 199.57 330.36C198.866 330.883 197.991 331.144 196.946 331.144C196.114 331.144 195.367 330.957 194.706 330.584C194.055 330.211 193.543 329.683 193.17 329C192.797 328.307 192.61 327.507 192.61 326.6C192.61 325.693 192.791 324.899 193.154 324.216C193.517 323.533 194.023 323.011 194.674 322.648C195.335 322.275 196.093 322.088 196.946 322.088C197.778 322.088 198.514 322.269 199.154 322.632C199.794 322.995 200.285 323.496 200.626 324.136C200.978 324.765 201.154 325.48 201.154 326.28ZM199.65 325.976C199.65 325.421 199.527 324.947 199.282 324.552C199.037 324.147 198.701 323.843 198.274 323.64C197.858 323.427 197.394 323.32 196.882 323.32C196.146 323.32 195.517 323.555 194.994 324.024C194.482 324.493 194.189 325.144 194.114 325.976H199.65ZM214.756 322.232L212.02 331H210.516L208.404 324.04L206.292 331H204.788L202.036 322.232H203.524L205.54 329.592L207.716 322.232H209.204L211.332 329.608L213.316 322.232H214.756ZM227.922 323.112C227.922 324.04 227.602 324.813 226.962 325.432C226.333 326.04 225.368 326.344 224.066 326.344H221.922V331H220.466V319.848H224.066C225.325 319.848 226.28 320.152 226.93 320.76C227.592 321.368 227.922 322.152 227.922 323.112ZM224.066 325.144C224.877 325.144 225.474 324.968 225.858 324.616C226.242 324.264 226.434 323.763 226.434 323.112C226.434 321.736 225.645 321.048 224.066 321.048H221.922V325.144H224.066ZM229.188 326.584C229.188 325.688 229.369 324.904 229.732 324.232C230.095 323.549 230.591 323.021 231.22 322.648C231.86 322.275 232.569 322.088 233.348 322.088C234.116 322.088 234.783 322.253 235.348 322.584C235.913 322.915 236.335 323.331 236.612 323.832V322.232H238.084V331H236.612V329.368C236.324 329.88 235.892 330.307 235.316 330.648C234.751 330.979 234.089 331.144 233.332 331.144C232.553 331.144 231.849 330.952 231.22 330.568C230.591 330.184 230.095 329.645 229.732 328.952C229.369 328.259 229.188 327.469 229.188 326.584ZM236.612 326.6C236.612 325.939 236.479 325.363 236.212 324.872C235.945 324.381 235.583 324.008 235.124 323.752C234.676 323.485 234.18 323.352 233.636 323.352C233.092 323.352 232.596 323.48 232.148 323.736C231.7 323.992 231.343 324.365 231.076 324.856C230.809 325.347 230.676 325.923 230.676 326.584C230.676 327.256 230.809 327.843 231.076 328.344C231.343 328.835 231.7 329.213 232.148 329.48C232.596 329.736 233.092 329.864 233.636 329.864C234.18 329.864 234.676 329.736 235.124 329.48C235.583 329.213 235.945 328.835 236.212 328.344C236.479 327.843 236.612 327.261 236.612 326.6ZM242.321 323.432V328.6C242.321 329.027 242.411 329.331 242.593 329.512C242.774 329.683 243.089 329.768 243.536 329.768H244.609V331H243.297C242.486 331 241.878 330.813 241.473 330.44C241.067 330.067 240.865 329.453 240.865 328.6V323.432H239.729V322.232H240.865V320.024H242.321V322.232H244.609V323.432H242.321ZM247.125 320.808C246.847 320.808 246.613 320.712 246.421 320.52C246.229 320.328 246.133 320.093 246.133 319.816C246.133 319.539 246.229 319.304 246.421 319.112C246.613 318.92 246.847 318.824 247.125 318.824C247.391 318.824 247.615 318.92 247.797 319.112C247.989 319.304 248.085 319.539 248.085 319.816C248.085 320.093 247.989 320.328 247.797 320.52C247.615 320.712 247.391 320.808 247.125 320.808ZM247.829 322.232V331H246.373V322.232H247.829ZM258.31 326.28C258.31 326.557 258.294 326.851 258.262 327.16H251.254C251.307 328.024 251.601 328.701 252.134 329.192C252.678 329.672 253.334 329.912 254.102 329.912C254.731 329.912 255.254 329.768 255.67 329.48C256.097 329.181 256.395 328.787 256.566 328.296H258.134C257.899 329.139 257.43 329.827 256.726 330.36C256.022 330.883 255.147 331.144 254.102 331.144C253.27 331.144 252.523 330.957 251.862 330.584C251.211 330.211 250.699 329.683 250.326 329C249.953 328.307 249.766 327.507 249.766 326.6C249.766 325.693 249.947 324.899 250.31 324.216C250.673 323.533 251.179 323.011 251.83 322.648C252.491 322.275 253.249 322.088 254.102 322.088C254.934 322.088 255.67 322.269 256.31 322.632C256.95 322.995 257.441 323.496 257.782 324.136C258.134 324.765 258.31 325.48 258.31 326.28ZM256.806 325.976C256.806 325.421 256.683 324.947 256.438 324.552C256.193 324.147 255.857 323.843 255.43 323.64C255.014 323.427 254.55 323.32 254.038 323.32C253.302 323.32 252.673 323.555 252.15 324.024C251.638 324.493 251.345 325.144 251.27 325.976H256.806ZM264.504 322.072C265.571 322.072 266.435 322.397 267.096 323.048C267.757 323.688 268.088 324.616 268.088 325.832V331H266.648V326.04C266.648 325.165 266.429 324.499 265.992 324.04C265.555 323.571 264.957 323.336 264.2 323.336C263.432 323.336 262.819 323.576 262.36 324.056C261.912 324.536 261.688 325.235 261.688 326.152V331H260.232V322.232H261.688V323.48C261.976 323.032 262.365 322.685 262.856 322.44C263.357 322.195 263.907 322.072 264.504 322.072ZM272.242 323.432V328.6C272.242 329.027 272.333 329.331 272.514 329.512C272.696 329.683 273.01 329.768 273.458 329.768H274.53V331H273.218C272.408 331 271.8 330.813 271.394 330.44C270.989 330.067 270.786 329.453 270.786 328.6V323.432H269.65V322.232H270.786V320.024H272.242V322.232H274.53V323.432H272.242Z" fill="white"/>
<path d="M806.282 48.956C807.026 48.956 807.698 49.118 808.298 49.442C808.898 49.754 809.366 50.228 809.702 50.864C810.05 51.5 810.224 52.274 810.224 53.186V59H808.604V53.42C808.604 52.436 808.358 51.686 807.866 51.17C807.374 50.642 806.702 50.378 805.85 50.378C804.986 50.378 804.296 50.648 803.78 51.188C803.276 51.728 803.024 52.514 803.024 53.546V59H801.386V45.68H803.024V50.54C803.348 50.036 803.792 49.646 804.356 49.37C804.932 49.094 805.574 48.956 806.282 48.956ZM814.898 50.486V56.3C814.898 56.78 815 57.122 815.204 57.326C815.408 57.518 815.762 57.614 816.266 57.614H817.472V59H815.996C815.084 59 814.4 58.79 813.944 58.37C813.488 57.95 813.26 57.26 813.26 56.3V50.486H811.982V49.136H813.26V46.652H814.898V49.136H817.472V50.486H814.898ZM821.454 50.486V56.3C821.454 56.78 821.556 57.122 821.76 57.326C821.964 57.518 822.318 57.614 822.822 57.614H824.028V59H822.552C821.64 59 820.956 58.79 820.5 58.37C820.044 57.95 819.816 57.26 819.816 56.3V50.486H818.538V49.136H819.816V46.652H821.454V49.136H824.028V50.486H821.454ZM827.651 50.954C827.975 50.39 828.455 49.922 829.091 49.55C829.739 49.166 830.489 48.974 831.341 48.974C832.217 48.974 833.009 49.184 833.717 49.604C834.437 50.024 835.001 50.618 835.409 51.386C835.817 52.142 836.021 53.024 836.021 54.032C836.021 55.028 835.817 55.916 835.409 56.696C835.001 57.476 834.437 58.082 833.717 58.514C833.009 58.946 832.217 59.162 831.341 59.162C830.501 59.162 829.757 58.976 829.109 58.604C828.473 58.22 827.987 57.746 827.651 57.182V63.68H826.013V49.136H827.651V50.954ZM834.347 54.032C834.347 53.288 834.197 52.64 833.897 52.088C833.597 51.536 833.189 51.116 832.673 50.828C832.169 50.54 831.611 50.396 830.999 50.396C830.399 50.396 829.841 50.546 829.325 50.846C828.821 51.134 828.413 51.56 828.101 52.124C827.801 52.676 827.651 53.318 827.651 54.05C827.651 54.794 827.801 55.448 828.101 56.012C828.413 56.564 828.821 56.99 829.325 57.29C829.841 57.578 830.399 57.722 830.999 57.722C831.611 57.722 832.169 57.578 832.673 57.29C833.189 56.99 833.597 56.564 833.897 56.012C834.197 55.448 834.347 54.788 834.347 54.032ZM841.669 59.162C840.913 59.162 840.235 59.036 839.635 58.784C839.035 58.52 838.561 58.16 838.213 57.704C837.865 57.236 837.673 56.702 837.637 56.102H839.329C839.377 56.594 839.605 56.996 840.013 57.308C840.433 57.62 840.979 57.776 841.651 57.776C842.275 57.776 842.767 57.638 843.127 57.362C843.487 57.086 843.667 56.738 843.667 56.318C843.667 55.886 843.475 55.568 843.091 55.364C842.707 55.148 842.113 54.938 841.309 54.734C840.577 54.542 839.977 54.35 839.509 54.158C839.053 53.954 838.657 53.66 838.321 53.276C837.997 52.88 837.835 52.364 837.835 51.728C837.835 51.224 837.985 50.762 838.285 50.342C838.585 49.922 839.011 49.592 839.563 49.352C840.115 49.1 840.745 48.974 841.453 48.974C842.545 48.974 843.427 49.25 844.099 49.802C844.771 50.354 845.131 51.11 845.179 52.07H843.541C843.505 51.554 843.295 51.14 842.911 50.828C842.539 50.516 842.035 50.36 841.399 50.36C840.811 50.36 840.343 50.486 839.995 50.738C839.647 50.99 839.473 51.32 839.473 51.728C839.473 52.052 839.575 52.322 839.779 52.538C839.995 52.742 840.259 52.91 840.571 53.042C840.895 53.162 841.339 53.3 841.903 53.456C842.611 53.648 843.187 53.84 843.631 54.032C844.075 54.212 844.453 54.488 844.765 54.86C845.089 55.232 845.257 55.718 845.269 56.318C845.269 56.858 845.119 57.344 844.819 57.776C844.519 58.208 844.093 58.55 843.541 58.802C843.001 59.042 842.377 59.162 841.669 59.162ZM848.103 59.108C847.791 59.108 847.527 59 847.311 58.784C847.095 58.568 846.987 58.304 846.987 57.992C846.987 57.68 847.095 57.416 847.311 57.2C847.527 56.984 847.791 56.876 848.103 56.876C848.403 56.876 848.655 56.984 848.859 57.2C849.075 57.416 849.183 57.68 849.183 57.992C849.183 58.304 849.075 58.568 848.859 58.784C848.655 59 848.403 59.108 848.103 59.108ZM848.103 51.404C847.791 51.404 847.527 51.296 847.311 51.08C847.095 50.864 846.987 50.6 846.987 50.288C846.987 49.976 847.095 49.712 847.311 49.496C847.527 49.28 847.791 49.172 848.103 49.172C848.403 49.172 848.655 49.28 848.859 49.496C849.075 49.712 849.183 49.976 849.183 50.288C849.183 50.6 849.075 50.864 848.859 51.08C848.655 51.296 848.403 51.404 848.103 51.404ZM857.533 42.044L852.601 62.06H850.981L855.895 42.044H857.533ZM866.094 42.044L861.162 62.06H859.542L864.456 42.044H866.094ZM880.396 48.956C881.164 48.956 881.848 49.118 882.448 49.442C883.048 49.754 883.522 50.228 883.87 50.864C884.218 51.5 884.392 52.274 884.392 53.186V59H882.772V53.42C882.772 52.436 882.526 51.686 882.034 51.17C881.554 50.642 880.9 50.378 880.072 50.378C879.22 50.378 878.542 50.654 878.038 51.206C877.534 51.746 877.282 52.532 877.282 53.564V59H875.662V53.42C875.662 52.436 875.416 51.686 874.924 51.17C874.444 50.642 873.79 50.378 872.962 50.378C872.11 50.378 871.432 50.654 870.928 51.206C870.424 51.746 870.172 52.532 870.172 53.564V59H868.534V49.136H870.172V50.558C870.496 50.042 870.928 49.646 871.468 49.37C872.02 49.094 872.626 48.956 873.286 48.956C874.114 48.956 874.846 49.142 875.482 49.514C876.118 49.886 876.592 50.432 876.904 51.152C877.18 50.456 877.636 49.916 878.272 49.532C878.908 49.148 879.616 48.956 880.396 48.956ZM896.079 53.69C896.079 54.002 896.061 54.332 896.025 54.68H888.141C888.201 55.652 888.531 56.414 889.131 56.966C889.743 57.506 890.481 57.776 891.345 57.776C892.053 57.776 892.641 57.614 893.109 57.29C893.589 56.954 893.925 56.51 894.117 55.958H895.881C895.617 56.906 895.089 57.68 894.297 58.28C893.505 58.868 892.521 59.162 891.345 59.162C890.409 59.162 889.569 58.952 888.825 58.532C888.093 58.112 887.517 57.518 887.097 56.75C886.677 55.97 886.467 55.07 886.467 54.05C886.467 53.03 886.671 52.136 887.079 51.368C887.487 50.6 888.057 50.012 888.789 49.604C889.533 49.184 890.385 48.974 891.345 48.974C892.281 48.974 893.109 49.178 893.829 49.586C894.549 49.994 895.101 50.558 895.485 51.278C895.881 51.986 896.079 52.79 896.079 53.69ZM894.387 53.348C894.387 52.724 894.249 52.19 893.973 51.746C893.697 51.29 893.319 50.948 892.839 50.72C892.371 50.48 891.849 50.36 891.273 50.36C890.445 50.36 889.737 50.624 889.149 51.152C888.573 51.68 888.243 52.412 888.159 53.348H894.387ZM897.629 54.032C897.629 53.024 897.833 52.142 898.241 51.386C898.649 50.618 899.207 50.024 899.915 49.604C900.635 49.184 901.439 48.974 902.327 48.974C903.095 48.974 903.809 49.154 904.469 49.514C905.129 49.862 905.633 50.324 905.981 50.9V45.68H907.637V59H905.981V57.146C905.657 57.734 905.177 58.22 904.541 58.604C903.905 58.976 903.161 59.162 902.309 59.162C901.433 59.162 900.635 58.946 899.915 58.514C899.207 58.082 898.649 57.476 898.241 56.696C897.833 55.916 897.629 55.028 897.629 54.032ZM905.981 54.05C905.981 53.306 905.831 52.658 905.531 52.106C905.231 51.554 904.823 51.134 904.307 50.846C903.803 50.546 903.245 50.396 902.633 50.396C902.021 50.396 901.463 50.54 900.959 50.828C900.455 51.116 900.053 51.536 899.753 52.088C899.453 52.64 899.303 53.288 899.303 54.032C899.303 54.788 899.453 55.448 899.753 56.012C900.053 56.564 900.455 56.99 900.959 57.29C901.463 57.578 902.021 57.722 902.633 57.722C903.245 57.722 903.803 57.578 904.307 57.29C904.823 56.99 905.231 56.564 905.531 56.012C905.831 55.448 905.981 54.794 905.981 54.05ZM910.928 59.108C910.616 59.108 910.352 59 910.136 58.784C909.92 58.568 909.812 58.304 909.812 57.992C909.812 57.68 909.92 57.416 910.136 57.2C910.352 56.984 910.616 56.876 910.928 56.876C911.228 56.876 911.48 56.984 911.684 57.2C911.9 57.416 912.008 57.68 912.008 57.992C912.008 58.304 911.9 58.568 911.684 58.784C911.48 59 911.228 59.108 910.928 59.108ZM915.031 47.534C914.719 47.534 914.455 47.426 914.239 47.21C914.023 46.994 913.915 46.73 913.915 46.418C913.915 46.106 914.023 45.842 914.239 45.626C914.455 45.41 914.719 45.302 915.031 45.302C915.331 45.302 915.583 45.41 915.787 45.626C916.003 45.842 916.111 46.106 916.111 46.418C916.111 46.73 916.003 46.994 915.787 47.21C915.583 47.426 915.331 47.534 915.031 47.534ZM915.823 49.136V59H914.185V49.136H915.823ZM922.917 59.162C921.993 59.162 921.153 58.952 920.397 58.532C919.653 58.112 919.065 57.518 918.633 56.75C918.213 55.97 918.003 55.07 918.003 54.05C918.003 53.042 918.219 52.154 918.651 51.386C919.095 50.606 919.695 50.012 920.451 49.604C921.207 49.184 922.053 48.974 922.989 48.974C923.925 48.974 924.771 49.184 925.527 49.604C926.283 50.012 926.877 50.6 927.309 51.368C927.753 52.136 927.975 53.03 927.975 54.05C927.975 55.07 927.747 55.97 927.291 56.75C926.847 57.518 926.241 58.112 925.473 58.532C924.705 58.952 923.853 59.162 922.917 59.162ZM922.917 57.722C923.505 57.722 924.057 57.584 924.573 57.308C925.089 57.032 925.503 56.618 925.815 56.066C926.139 55.514 926.301 54.842 926.301 54.05C926.301 53.258 926.145 52.586 925.833 52.034C925.521 51.482 925.113 51.074 924.609 50.81C924.105 50.534 923.559 50.396 922.971 50.396C922.371 50.396 921.819 50.534 921.315 50.81C920.823 51.074 920.427 51.482 920.127 52.034C919.827 52.586 919.677 53.258 919.677 54.05C919.677 54.854 919.821 55.532 920.109 56.084C920.409 56.636 920.805 57.05 921.297 57.326C921.789 57.59 922.329 57.722 922.917 57.722Z" fill="white"/>
<circle cx="69" cy="55" r="11" fill="#FE8660"/>
<circle cx="107" cy="55" r="11" fill="#FEDB60"/>
<circle cx="145" cy="55" r="11" fill="#9BF07D"/>
<path fill-rule="evenodd" clip-rule="evenodd" d="M88.2453 145.082L97.9519 151.082L98.2477 151.251L98.4418 151.379L108.416 157.548V157.538C110.154 158.618 111.522 160.143 112.475 161.905C113.344 163.529 113.852 165.351 113.945 167.213C113.972 167.421 113.991 167.639 113.991 167.856V193.018C113.991 195.335 113.371 197.503 112.299 199.335C111.199 201.226 109.618 202.751 107.76 203.742L98.2477 209.623C94.8273 211.604 91.4254 213.822 88.0512 215.911L87.7831 216.06C86.0822 217.05 84.2333 217.505 82.4214 217.496H82.4029C80.4247 217.476 78.4926 216.901 76.8194 215.832L76.6345 215.703L67.1221 209.821C67.0019 209.762 66.8725 209.693 66.7523 209.623L56.5836 203.336C54.8457 202.256 53.4775 200.731 52.5253 198.969C51.6564 197.345 51.1479 195.523 51.0555 193.651C51.0278 193.443 51.0093 193.226 51.0093 193.018V167.856C51.0093 165.539 51.6286 163.371 52.701 161.539C53.8011 159.648 55.3818 158.123 57.2399 157.132L66.7523 151.251C70.1912 149.26 73.5839 147.052 76.9673 144.963C78.7422 143.873 80.6743 143.359 82.5786 143.378C84.5569 143.398 86.4982 143.972 88.1806 145.042L88.2453 145.082Z" fill="#21118D"/>
<path fill-rule="evenodd" clip-rule="evenodd" d="M58.2292 180.422C58.2292 176.243 61.4278 172.817 65.3289 172.817H75.4144C83.2258 172.817 89.6137 179.66 89.6137 188.027H65.3381C61.437 188.027 58.2385 184.611 58.2385 180.422H58.2292Z" fill="#7E57FE"/>
<path fill-rule="evenodd" clip-rule="evenodd" d="M75.4143 165.628C75.4143 161.45 78.6036 158.024 82.5139 158.024C86.415 158.024 89.6136 161.44 89.6136 165.628C89.6136 169.807 86.4243 173.233 82.5139 173.233C78.6128 173.233 75.4143 169.817 75.4143 165.628Z" fill="#F7657C"/>
<path fill-rule="evenodd" clip-rule="evenodd" d="M106.919 180.422V179.036C106.919 175.62 104.303 172.817 101.114 172.817C94.7257 172.817 89.5027 178.412 89.5027 185.254V188.027H99.8193C103.72 188.027 106.919 184.611 106.919 180.422Z" fill="#7E57FE"/>
<path fill-rule="evenodd" clip-rule="evenodd" d="M82.5139 206.673C86.415 206.673 89.6136 203.256 89.6136 199.068V188.017H75.4143V199.068C75.4143 203.246 78.6036 206.673 82.5139 206.673Z" fill="white"/>
<ellipse cx="118.25" cy="318.4" rx="5" ry="5.37153" stroke="white" stroke-width="2" stroke-linecap="round" stroke-linejoin="round"/>
<path d="M110.75 337.201V334.515C110.75 331.548 112.989 329.143 115.75 329.143H120.75C123.511 329.143 125.75 331.548 125.75 334.515V337.201" stroke="white" stroke-width="2" stroke-linecap="round" stroke-linejoin="round"/>
<path d="M127 313.203C129.212 313.812 130.76 315.953 130.76 318.407C130.76 320.86 129.212 323.002 127 323.611" stroke="white" stroke-width="2" stroke-linecap="round" stroke-linejoin="round"/>
<path d="M133.25 337.201V334.515C133.237 332.077 131.697 329.954 129.5 329.345" stroke="white" stroke-width="2" stroke-linecap="round" stroke-linejoin="round"/>
<rect x="497.5" y="49.5" width="21" height="15" rx="2" stroke="#5A636D" stroke-width="2" stroke-linecap="round" stroke-linejoin="round"/>
<circle cx="508" cy="57" r="1.5" stroke="#5A636D" stroke-width="2" stroke-linecap="round" stroke-linejoin="round"/>
<path d="M502 49.5V43.5C502 40.1863 504.686 37.5 508 37.5C511.314 37.5 514 40.1863 514 43.5V49.5" stroke="#5A636D" stroke-width="2" stroke-linecap="round" stroke-linejoin="round"/>
<path d="M1223 54C1223.99 55.0078 1225.34 55.5758 1226.75 55.5758C1228.16 55.5758 1229.51 55.0078 1230.5 54L1236.5 48C1238.57 45.9289 1238.57 42.5711 1236.5 40.5C1234.43 38.4289 1231.07 38.4289 1229 40.5L1228.25 41.25" stroke="#4F5762" stroke-width="2" stroke-linecap="round" stroke-linejoin="round"/>
<path d="M1229 48C1228.01 46.9922 1226.66 46.4243 1225.25 46.4243C1223.84 46.4243 1222.49 46.9922 1221.5 48L1215.5 54C1213.43 56.0711 1213.43 59.429 1215.5 61.5C1217.57 63.5711 1220.93 63.5711 1223 61.5L1223.75 60.75" stroke="#4F5762" stroke-width="2" stroke-linecap="round" stroke-linejoin="round"/>
<path d="M1232 64.5V61.5" stroke="#4F5762" stroke-width="2" stroke-linecap="round" stroke-linejoin="round"/>
<path d="M1236.5 57H1239.5" stroke="#4F5762" stroke-width="2" stroke-linecap="round" stroke-linejoin="round"/>
<path d="M1212.5 45H1215.5" stroke="#4F5762" stroke-width="2" stroke-linecap="round" stroke-linejoin="round"/>
<path d="M1220 37.5V40.5" stroke="#4F5762" stroke-width="2" stroke-linecap="round" stroke-linejoin="round"/>
</g>
<defs>
<filter id="filter0_d_117_120" x="439" y="440" width="287" height="143" filterUnits="userSpaceOnUse" color-interpolation-filters="sRGB">
<feFlood flood-opacity="0" result="BackgroundImageFix"/>
<feColorMatrix in="SourceAlpha" type="matrix" values="0 0 0 0 0 0 0 0 0 0 0 0 0 0 0 0 0 0 127 0" result="hardAlpha"/>
<feOffset dy="4"/>
<feGaussianBlur stdDeviation="2"/>
<feComposite in2="hardAlpha" operator="out"/>
<feColorMatrix type="matrix" values="0 0 0 0 0 0 0 0 0 0 0 0 0 0 0 0 0 0 0.1 0"/>
<feBlend mode="normal" in2="BackgroundImageFix" result="effect1_dropShadow_117_120"/>
<feBlend mode="normal" in="SourceGraphic" in2="effect1_dropShadow_117_120" result="shape"/>
</filter>
<filter id="filter1_d_117_120" x="757" y="440" width="288" height="143" filterUnits="userSpaceOnUse" color-interpolation-filters="sRGB">
<feFlood flood-opacity="0" result="BackgroundImageFix"/>
<feColorMatrix in="SourceAlpha" type="matrix" values="0 0 0 0 0 0 0 0 0 0 0 0 0 0 0 0 0 0 127 0" result="hardAlpha"/>
<feOffset dy="4"/>
<feGaussianBlur stdDeviation="2"/>
<feComposite in2="hardAlpha" operator="out"/>
<feColorMatrix type="matrix" values="0 0 0 0 0 0 0 0 0 0 0 0 0 0 0 0 0 0 0.1 0"/>
<feBlend mode="normal" in2="BackgroundImageFix" result="effect1_dropShadow_117_120"/>
<feBlend mode="normal" in="SourceGraphic" in2="effect1_dropShadow_117_120" result="shape"/>
</filter>
<filter id="filter2_d_117_120" x="1076" y="440" width="287" height="143" filterUnits="userSpaceOnUse" color-interpolation-filters="sRGB">
<feFlood flood-opacity="0" result="BackgroundImageFix"/>
<feColorMatrix in="SourceAlpha" type="matrix" values="0 0 0 0 0 0 0 0 0 0 0 0 0 0 0 0 0 0 127 0" result="hardAlpha"/>
<feOffset dy="4"/>
<feGaussianBlur stdDeviation="2"/>
<feComposite in2="hardAlpha" operator="out"/>
<feColorMatrix type="matrix" values="0 0 0 0 0 0 0 0 0 0 0 0 0 0 0 0 0 0 0.1 0"/>
<feBlend mode="normal" in2="BackgroundImageFix" result="effect1_dropShadow_117_120"/>
<feBlend mode="normal" in="SourceGraphic" in2="effect1_dropShadow_117_120" result="shape"/>
</filter>
<filter id="filter3_d_117_120" x="1389" y="440" width="287" height="143" filterUnits="userSpaceOnUse" color-interpolation-filters="sRGB">
<feFlood flood-opacity="0" result="BackgroundImageFix"/>
<feColorMatrix in="SourceAlpha" type="matrix" values="0 0 0 0 0 0 0 0 0 0 0 0 0 0 0 0 0 0 127 0" result="hardAlpha"/>
<feOffset dy="4"/>
<feGaussianBlur stdDeviation="2"/>
<feComposite in2="hardAlpha" operator="out"/>
<feColorMatrix type="matrix" values="0 0 0 0 0 0 0 0 0 0 0 0 0 0 0 0 0 0 0.1 0"/>
<feBlend mode="normal" in2="BackgroundImageFix" result="effect1_dropShadow_117_120"/>
<feBlend mode="normal" in="SourceGraphic" in2="effect1_dropShadow_117_120" result="shape"/>
</filter>
<clipPath id="clip0_117_120">
<path d="M0 30C0 13.4315 13.4315 0 30 0H1698C1714.57 0 1728 13.4315 1728 30V600H0V30Z" fill="white"/>
</clipPath>
</defs>
</svg>
