<?xml version="1.0" encoding="UTF-8"?>
<!DOCTYPE svg PUBLIC "-//W3C//DTD SVG 1.1//EN" "http://www.w3.org/Graphics/SVG/1.1/DTD/svg11.dtd">
<!-- Creator: CorelDRAW 2018 (64-Bit Evaluation Version) -->
<svg xmlns="http://www.w3.org/2000/svg" xml:space="preserve" width="0.393701in" height="0.393701in" version="1.1" style="shape-rendering:geometricPrecision; text-rendering:geometricPrecision; image-rendering:optimizeQuality; fill-rule:evenodd; clip-rule:evenodd"
viewBox="0 0 36.97 36.97"
 xmlns:xlink="http://www.w3.org/1999/xlink">
 <defs>
  <style type="text/css">
   <![CDATA[
    .fil2 {fill:#7E57FE}
    .fil1 {fill:#BEABFF}
    .fil0 {fill:#ECE6FF}
   ]]>
  </style>
 </defs>
 <g id="Layer_x0020_1">
  <metadata id="CorelCorpID_0Corel-Layer"/>
  <g id="_2900610909328">
   <path class="fil0" d="M9.7 0.72c2.4,-0.53 5.31,-0.72 8.78,-0.72 3.47,0 6.38,0.18 8.78,0.72 2.42,0.54 4.43,1.46 5.98,3.01 1.55,1.55 2.47,3.56 3.01,5.98 0.53,2.4 0.72,5.31 0.72,8.78 0,3.47 -0.18,6.38 -0.72,8.78 -0.54,2.42 -1.46,4.43 -3.01,5.98 -1.55,1.55 -3.56,2.47 -5.98,3.01 -2.4,0.53 -5.31,0.72 -8.78,0.72 -3.47,0 -6.38,-0.18 -8.78,-0.72 -2.42,-0.54 -4.43,-1.46 -5.98,-3.01 -1.55,-1.55 -2.47,-3.56 -3.01,-5.98 -0.53,-2.4 -0.72,-5.31 -0.72,-8.78 0,-3.47 0.18,-6.38 0.72,-8.78 0.54,-2.42 1.46,-4.43 3.01,-5.98 1.55,-1.55 3.56,-2.47 5.98,-3.01z"/>
   <rect class="fil1" x="11.51" y="12.08" width="13.72" height="11.52"/>
   <path class="fil2" d="M11.05 22.5l14.65 0c0.61,0 1.11,0.5 1.11,1.11l0 2.24c0,0.61 -0.5,1.11 -1.11,1.11l-14.65 0c-0.61,0 -1.11,-0.5 -1.11,-1.11l0 -2.24c0,-0.61 0.5,-1.11 1.11,-1.11zm0 -13.79l14.65 0c0.61,0 1.11,0.5 1.11,1.11l0 2.24c0,0.61 -0.5,1.11 -1.11,1.11l-14.65 0c-0.61,0 -1.11,-0.5 -1.11,-1.11l0 -2.24c0,-0.61 0.5,-1.11 1.11,-1.11zm0 6.89l14.65 0c0.61,0 1.11,0.5 1.11,1.11l0 2.24c0,0.61 -0.5,1.11 -1.11,1.11l-14.65 0c-0.61,0 -1.11,-0.5 -1.11,-1.11l0 -2.24c0,-0.61 0.5,-1.11 1.11,-1.11z"/>
  </g>
 </g>
</svg>
