<?xml version="1.0" encoding="UTF-8"?>
<!DOCTYPE svg PUBLIC "-//W3C//DTD SVG 1.1//EN" "http://www.w3.org/Graphics/SVG/1.1/DTD/svg11.dtd">
<!-- Creator: CorelDRAW 2018 (64-Bit Evaluation Version) -->
<svg xmlns="http://www.w3.org/2000/svg" xml:space="preserve" width="0.393701in" height="0.393701in" version="1.1" style="shape-rendering:geometricPrecision; text-rendering:geometricPrecision; image-rendering:optimizeQuality; fill-rule:evenodd; clip-rule:evenodd"
viewBox="0 0 56.56 56.56"
 xmlns:xlink="http://www.w3.org/1999/xlink">
 <defs>
  <style type="text/css">
   <![CDATA[
    .fil1 {fill:#12B373}
    .fil2 {fill:#88D9B9}
    .fil0 {fill:#DBF4EA}
   ]]>
  </style>
 </defs>
 <g id="Layer_x0020_1">
  <metadata id="CorelCorpID_0Corel-Layer"/>
  <path class="fil0" d="M14.85 1.1c3.67,-0.82 8.13,-1.1 13.43,-1.1 5.3,0 9.76,0.28 13.43,1.1 3.7,0.82 6.78,2.23 9.15,4.6 2.37,2.37 3.77,5.45 4.6,9.15 0.82,3.67 1.1,8.13 1.1,13.43 0,5.3 -0.28,9.76 -1.1,13.43 -0.82,3.7 -2.23,6.78 -4.6,9.15 -2.37,2.37 -5.45,3.77 -9.15,4.6 -3.67,0.82 -8.13,1.1 -13.43,1.1 -5.3,0 -9.76,-0.28 -13.43,-1.1 -3.7,-0.82 -6.78,-2.23 -9.15,-4.6 -2.37,-2.37 -3.77,-5.45 -4.6,-9.15 -0.82,-3.67 -1.1,-8.13 -1.1,-13.43 0,-5.3 0.28,-9.76 1.1,-13.43 0.82,-3.7 2.23,-6.78 4.6,-9.15 2.37,-2.37 5.45,-3.77 9.15,-4.6z"/>
  <g id="_2900500325952">
   <path class="fil1" d="M15.85 14.41l24.85 0c1.56,0 2.83,1.27 2.83,2.83l0 14.35 -30.51 0 0 -14.35c0,-1.56 1.27,-2.83 2.83,-2.83z"/>
   <path class="fil2" d="M15.85 37.75l6.75 0 0 1.57c0,1.56 1.27,2.83 2.83,2.83l5.7 0c1.56,0 2.83,-1.27 2.83,-2.83l0 -1.57 6.75 0c1.56,0 2.83,-1.27 2.83,-2.83l0 -3.34 -30.51 0 0 3.34c0,1.56 1.27,2.83 2.83,2.83z"/>
  </g>
 </g>
</svg>
