<?xml version="1.0" encoding="UTF-8"?>
<!DOCTYPE svg PUBLIC "-//W3C//DTD SVG 1.1//EN" "http://www.w3.org/Graphics/SVG/1.1/DTD/svg11.dtd">
<!-- Creator: CorelDRAW 2018 (64-Bit Evaluation Version) -->
<svg xmlns="http://www.w3.org/2000/svg" xml:space="preserve" width="0.393701in" height="0.393701in" version="1.1" style="shape-rendering:geometricPrecision; text-rendering:geometricPrecision; image-rendering:optimizeQuality; fill-rule:evenodd; clip-rule:evenodd"
viewBox="0 0 56.56 56.56"
 xmlns:xlink="http://www.w3.org/1999/xlink">
 <defs>
  <style type="text/css">
   <![CDATA[
    .fil1 {fill:#7E57FE}
    .fil2 {fill:#BEABFF}
    .fil0 {fill:#ECE6FF}
   ]]>
  </style>
 </defs>
 <g id="Layer_x0020_1">
  <metadata id="CorelCorpID_0Corel-Layer"/>
  <path class="fil0" d="M14.85 1.1c3.67,-0.82 8.13,-1.1 13.43,-1.1 5.3,0 9.76,0.28 13.43,1.1 3.7,0.82 6.78,2.23 9.15,4.6 2.37,2.37 3.77,5.45 4.6,9.15 0.82,3.67 1.1,8.13 1.1,13.43 0,5.3 -0.28,9.76 -1.1,13.43 -0.82,3.7 -2.23,6.78 -4.6,9.15 -2.37,2.37 -5.45,3.77 -9.15,4.6 -3.67,0.82 -8.13,1.1 -13.43,1.1 -5.3,0 -9.76,-0.28 -13.43,-1.1 -3.7,-0.82 -6.78,-2.23 -9.15,-4.6 -2.37,-2.37 -3.77,-5.45 -4.6,-9.15 -0.82,-3.67 -1.1,-8.13 -1.1,-13.43 0,-5.3 0.28,-9.76 1.1,-13.43 0.82,-3.71 2.23,-6.78 4.6,-9.15 2.37,-2.37 5.45,-3.77 9.15,-4.6z"/>
  <g id="_2900407266576">
   <path class="fil1" d="M30.53 15.23c1.95,0.38 3.74,1.21 5.27,2.36l1.29 -1.29c0.22,-0.22 0.58,-0.22 0.8,0l2.38 2.38c0.22,0.22 0.22,0.58 0,0.8l-1.41 1.41c0.98,1.52 1.66,3.27 1.92,5.15l2.2 0c0.31,0 0.57,0.25 0.57,0.57l0 3.36c0,0.31 -0.25,0.57 -0.57,0.57l-2.35 0c-0.37,1.76 -1.1,3.39 -2.12,4.8l1.75 1.75c0.22,0.22 0.22,0.58 0,0.8l-2.38 2.38c-0.22,0.22 -0.58,0.22 -0.8,0l-1.78 -1.78c-1.41,0.97 -3.03,1.66 -4.77,2.01l0 2.49c0,0.31 -0.25,0.57 -0.57,0.57l-3.36 0c-0.31,0 -0.57,-0.25 -0.57,-0.57l0 -2.4c-1.81,-0.28 -3.5,-0.94 -4.97,-1.9l-1.58 1.58c-0.22,0.22 -0.58,0.22 -0.8,0l-2.38 -2.38c-0.22,-0.22 -0.22,-0.58 0,-0.8l1.46 -1.46c-1.12,-1.48 -1.93,-3.21 -2.33,-5.09l-1.85 0c-0.31,0 -0.57,-0.25 -0.57,-0.57l0 -3.36c0,-0.31 0.25,-0.57 0.57,-0.57l1.7 0c0.28,-2 1.03,-3.85 2.12,-5.45l-1.11 -1.11c-0.22,-0.22 -0.22,-0.58 0,-0.8l2.38 -2.38c0.22,-0.22 0.58,-0.22 0.8,0l1.08 1.08c1.59,-1.14 3.46,-1.92 5.48,-2.24l0 -1.55c0,-0.31 0.25,-0.57 0.57,-0.57l3.36 0c0.31,0 0.57,0.25 0.57,0.57l0 1.64z"/>
   <circle class="fil2" cx="28.03" cy="27.86" r="4.96"/>
  </g>
 </g>
</svg>
