<?xml version="1.0" encoding="UTF-8"?>
<!DOCTYPE svg PUBLIC "-//W3C//DTD SVG 1.1//EN" "http://www.w3.org/Graphics/SVG/1.1/DTD/svg11.dtd">
<!-- Creator: CorelDRAW 2018 (64-Bit Evaluation Version) -->
<svg xmlns="http://www.w3.org/2000/svg" xml:space="preserve" width="0.414937in" height="0.455791in" version="1.1" style="shape-rendering:geometricPrecision; text-rendering:geometricPrecision; image-rendering:optimizeQuality; fill-rule:evenodd; clip-rule:evenodd"
viewBox="0 0 68.15 74.86"
 xmlns:xlink="http://www.w3.org/1999/xlink">
 <defs>
  <style type="text/css">
   <![CDATA[
    .fil0 {fill:#21118D}
    .fil1 {fill:#7E57FE}
    .fil2 {fill:#F7657C}
    .fil3 {fill:white}
   ]]>
  </style>
 </defs>
 <g id="Layer_x0020_1">
  <metadata id="CorelCorpID_0Corel-Layer"/>
  <path class="fil0" d="M40.29 1.72l10.5 6.06 0.32 0.17 0.21 0.13 10.79 6.23 0 -0.01c1.88,1.09 3.36,2.63 4.39,4.41 0.94,1.64 1.49,3.48 1.59,5.36 0.03,0.21 0.05,0.43 0.05,0.65l0 25.41c0,2.34 -0.67,4.53 -1.83,6.38 -1.19,1.91 -2.9,3.45 -4.91,4.45l-10.29 5.94c-3.7,2 -7.38,4.24 -11.03,6.35l-0.29 0.15c-1.84,1 -3.84,1.46 -5.8,1.45l-0.02 0c-2.14,-0.02 -4.23,-0.6 -6.04,-1.68l-0.2 -0.13 -10.29 -5.94c-0.13,-0.06 -0.27,-0.13 -0.4,-0.2l-11 -6.35c-1.88,-1.09 -3.36,-2.63 -4.39,-4.41 -0.94,-1.64 -1.49,-3.48 -1.59,-5.37 -0.03,-0.21 -0.05,-0.43 -0.05,-0.64l0 -25.41c0,-2.34 0.67,-4.53 1.83,-6.38 1.19,-1.91 2.9,-3.45 4.91,-4.45l10.29 -5.94c3.72,-2.01 7.39,-4.24 11.05,-6.35 1.92,-1.1 4.01,-1.62 6.07,-1.6 2.14,0.02 4.24,0.6 6.06,1.68l0.07 0.04z"/>
  <path class="fil1" d="M7.82 37.41l0 -0c0,-4.22 3.46,-7.68 7.68,-7.68l10.91 0c8.45,0 15.36,6.91 15.36,15.36l0 0 -26.26 0c-4.22,0 -7.68,-3.45 -7.68,-7.68z"/>
  <path class="fil2" d="M26.41 22.47l0 -0c0,-4.22 3.45,-7.68 7.68,-7.68l0 0c4.22,0 7.68,3.45 7.68,7.68l0 0c0,4.22 -3.45,7.68 -7.68,7.68l-0 0c-4.22,0 -7.68,-3.45 -7.68,-7.68z"/>
  <path class="fil1" d="M60.49 37.41l0 -1.4c0,-3.45 -2.83,-6.28 -6.28,-6.28l-0 0c-6.91,0 -12.56,5.65 -12.56,12.56l0 2.8 11.16 0c4.22,0 7.68,-3.45 7.68,-7.68z"/>
  <path class="fil3" d="M34.09 63.92l0 0c4.22,0 7.68,-3.45 7.68,-7.68l0 -11.16 -15.36 0 0 11.16c0,4.22 3.45,7.68 7.68,7.68z"/>
 </g>
</svg>
