<?xml version="1.0" encoding="UTF-8"?>
<!DOCTYPE svg PUBLIC "-//W3C//DTD SVG 1.1//EN" "http://www.w3.org/Graphics/SVG/1.1/DTD/svg11.dtd">
<!-- Creator: CorelDRAW 2018 (64-Bit Evaluation Version) -->
<svg xmlns="http://www.w3.org/2000/svg" xml:space="preserve" width="0.393701in" height="0.393701in" version="1.1" style="shape-rendering:geometricPrecision; text-rendering:geometricPrecision; image-rendering:optimizeQuality; fill-rule:evenodd; clip-rule:evenodd"
viewBox="0 0 36.97 36.97"
 xmlns:xlink="http://www.w3.org/1999/xlink">
 <defs>
  <style type="text/css">
   <![CDATA[
    .fil2 {fill:#7D849D}
    .fil1 {fill:#B3B7C7}
    .fil0 {fill:#ECEDF0}
   ]]>
  </style>
 </defs>
 <g id="Layer_x0020_1">
  <metadata id="CorelCorpID_0Corel-Layer"/>
  <path class="fil0" d="M9.7 0.72c2.4,-0.53 5.31,-0.72 8.78,-0.72 3.47,0 6.38,0.18 8.78,0.72 2.42,0.54 4.43,1.46 5.98,3.01 1.55,1.55 2.47,3.56 3.01,5.98 0.53,2.4 0.72,5.31 0.72,8.78 0,3.47 -0.18,6.38 -0.72,8.78 -0.54,2.42 -1.46,4.43 -3.01,5.98 -1.55,1.55 -3.56,2.47 -5.98,3.01 -2.4,0.53 -5.31,0.72 -8.78,0.72 -3.47,0 -6.38,-0.18 -8.78,-0.72 -2.42,-0.54 -4.43,-1.46 -5.98,-3.01 -1.55,-1.55 -2.47,-3.56 -3.01,-5.98 -0.53,-2.4 -0.72,-5.31 -0.72,-8.78 0,-3.47 0.18,-6.38 0.72,-8.78 0.54,-2.42 1.46,-4.43 3.01,-5.98 1.55,-1.55 3.56,-2.47 5.98,-3.01z"/>
  <path class="fil1" d="M9.7 10.09l4.78 0c0.96,0.04 1.67,0.36 2.12,0.98l-0.01 -0.01 0.01 0.02 0.01 0.02 0.01 0.02 0.01 0.02 0.01 0.02 0.01 0.01 0.01 0.01 0.01 0.01 0.01 0.01 0.01 0.01 0.01 0.01 0.01 0.01 0.01 0.01 0.01 0.01 0.01 0.01 0.01 0.01 0.01 0.01 0 0.01 0 0.01 0 0.01 0 0.01 0 0.01 0 0 0 0 0 0 0 0 0 0 0 0 0 0 0 0 3.05 4.8 -11.96 0 0 -4.19c0,-1.02 0.83,-1.85 1.85,-1.85z"/>
  <path class="fil2" d="M7.86 13.51l19.41 0c1.02,0 1.85,0.83 1.85,1.85l0 9.68c0,1.02 -0.83,1.85 -1.85,1.85l-17.56 0c-1.02,0 -1.85,-0.83 -1.85,-1.85l0 -11.53z"/>
  <path class="fil0" d="M17.8 16.59l1.36 0c0.36,0 0.65,0.29 0.65,0.65l0 1.62 1.62 0c0.36,0 0.65,0.29 0.65,0.65l0 1.36c0,0.36 -0.29,0.65 -0.65,0.65l-1.62 0 0 1.62c0,0.36 -0.29,0.65 -0.65,0.65l-1.36 0c-0.36,0 -0.65,-0.29 -0.65,-0.65l0 -1.62 -1.62 0c-0.36,0 -0.65,-0.29 -0.65,-0.65l0 -1.36c0,-0.36 0.29,-0.65 0.65,-0.65l1.62 0 0 -1.62c0,-0.36 0.29,-0.65 0.65,-0.65z"/>
 </g>
</svg>
