<?xml version="1.0" encoding="UTF-8"?>
<!DOCTYPE svg PUBLIC "-//W3C//DTD SVG 1.1//EN" "http://www.w3.org/Graphics/SVG/1.1/DTD/svg11.dtd">
<!-- Creator: CorelDRAW 2018 (64-Bit Evaluation Version) -->
<svg xmlns="http://www.w3.org/2000/svg" xml:space="preserve" width="0.393701in" height="0.393701in" version="1.1" style="shape-rendering:geometricPrecision; text-rendering:geometricPrecision; image-rendering:optimizeQuality; fill-rule:evenodd; clip-rule:evenodd"
viewBox="0 0 36.97 36.97"
 xmlns:xlink="http://www.w3.org/1999/xlink">
 <defs>
  <style type="text/css">
   <![CDATA[
    .fil1 {fill:#CF485C}
    .fil2 {fill:#F7657C}
    .fil3 {fill:#FBB2BD}
    .fil0 {fill:#FEE8EB}
   ]]>
  </style>
 </defs>
 <g id="Layer_x0020_1">
  <metadata id="CorelCorpID_0Corel-Layer"/>
  <path class="fil0" d="M9.7 0.72c2.4,-0.53 5.31,-0.72 8.78,-0.72 3.47,0 6.38,0.18 8.78,0.72 2.42,0.54 4.43,1.46 5.98,3.01 1.55,1.55 2.47,3.56 3.01,5.98 0.53,2.4 0.72,5.31 0.72,8.78 0,3.47 -0.18,6.38 -0.72,8.78 -0.54,2.42 -1.46,4.43 -3.01,5.98 -1.55,1.55 -3.56,2.47 -5.98,3.01 -2.4,0.53 -5.31,0.72 -8.78,0.72 -3.47,0 -6.38,-0.18 -8.78,-0.72 -2.42,-0.54 -4.43,-1.46 -5.98,-3.01 -1.55,-1.55 -2.47,-3.56 -3.01,-5.98 -0.53,-2.4 -0.72,-5.31 -0.72,-8.78 0,-3.47 0.18,-6.38 0.72,-8.78 0.54,-2.42 1.46,-4.43 3.01,-5.98 1.55,-1.55 3.56,-2.47 5.98,-3.01z"/>
  <g id="_2900701154144">
   <rect class="fil1" x="13.17" y="9.82" width="10.64" height="3.73" rx="0.74" ry="0.74"/>
   <rect class="fil2" x="8.56" y="12.33" width="19.85" height="14.82" rx="1.85" ry="1.85"/>
   <path class="fil3" d="M17.8 16.13l1.36 0c0.36,0 0.65,0.29 0.65,0.65l0 1.62 1.62 0c0.36,0 0.65,0.29 0.65,0.65l0 1.36c0,0.36 -0.29,0.65 -0.65,0.65l-1.62 0 0 1.62c0,0.36 -0.29,0.65 -0.65,0.65l-1.36 0c-0.36,0 -0.65,-0.29 -0.65,-0.65l0 -1.62 -1.62 0c-0.36,0 -0.65,-0.29 -0.65,-0.65l0 -1.36c0,-0.36 0.29,-0.65 0.65,-0.65l1.62 0 0 -1.62c0,-0.36 0.29,-0.65 0.65,-0.65z"/>
  </g>
 </g>
</svg>
