<?xml version="1.0" encoding="UTF-8"?>
<!DOCTYPE svg PUBLIC "-//W3C//DTD SVG 1.1//EN" "http://www.w3.org/Graphics/SVG/1.1/DTD/svg11.dtd">
<!-- Creator: CorelDRAW 2018 (64-Bit Evaluation Version) -->
<svg xmlns="http://www.w3.org/2000/svg" xml:space="preserve" width="0.393701in" height="0.393701in" version="1.1" style="shape-rendering:geometricPrecision; text-rendering:geometricPrecision; image-rendering:optimizeQuality; fill-rule:evenodd; clip-rule:evenodd"
viewBox="0 0 56.56 56.56"
 xmlns:xlink="http://www.w3.org/1999/xlink">
 <defs>
  <style type="text/css">
   <![CDATA[
    .fil1 {fill:#FF6600}
    .fil2 {fill:#FFB27F}
    .fil0 {fill:#FFE8D8}
   ]]>
  </style>
 </defs>
 <g id="Layer_x0020_1">
  <metadata id="CorelCorpID_0Corel-Layer"/>
  <path class="fil0" d="M14.85 1.1c3.67,-0.82 8.13,-1.1 13.43,-1.1 5.3,0 9.76,0.28 13.43,1.1 3.7,0.82 6.78,2.23 9.15,4.6 2.37,2.37 3.77,5.45 4.6,9.15 0.82,3.67 1.1,8.13 1.1,13.43 0,5.3 -0.28,9.76 -1.1,13.43 -0.82,3.7 -2.23,6.78 -4.6,9.15 -2.37,2.37 -5.45,3.77 -9.15,4.6 -3.67,0.82 -8.13,1.1 -13.43,1.1 -5.3,0 -9.76,-0.28 -13.43,-1.1 -3.7,-0.82 -6.78,-2.23 -9.15,-4.6 -2.37,-2.37 -3.77,-5.45 -4.6,-9.15 -0.82,-3.67 -1.1,-8.13 -1.1,-13.43 0,-5.3 0.28,-9.76 1.1,-13.43 0.82,-3.7 2.23,-6.78 4.6,-9.15 2.37,-2.37 5.45,-3.77 9.15,-4.6z"/>
  <g id="_2900407290480">
   <path class="fil1" d="M41.61 32.98l0 0.12 -0 0.11 -0.01 0.2c-0.09,1.3 -0.76,2.43 -1.76,3.15l0 0 -0.04 0.03 -8.62 6.27c-0.76,0.69 -1.77,1.1 -2.87,1.1 -1.06,0 -2.02,-0.38 -2.77,-1.02l-8.68 -6.28 -0 -0c-0.42,-0.28 -0.8,-0.63 -1.1,-1.04l-0 -0 -0 -0c-0.46,-0.63 -0.76,-1.39 -0.81,-2.22l-0.01 -0.21 0 -0.01 0 -0.01 -0 -0.08 0 -0.11 0 -12.89c0,-1.56 1.27,-2.83 2.83,-2.83l21.01 0c1.56,0 2.83,1.27 2.83,2.83l0 12.88z"/>
   <path class="fil2" d="M28.28 22.63c1.85,0 3.35,1.5 3.35,3.35 0,1.3 -0.74,2.42 -1.82,2.98l0 4.47c0,0.84 -0.68,1.52 -1.52,1.52l-0 0c-0.84,0 -1.52,-0.68 -1.52,-1.52l0 -4.47c-1.08,-0.55 -1.82,-1.68 -1.82,-2.98 0,-1.85 1.5,-3.35 3.35,-3.35z"/>
  </g>
 </g>
</svg>
