<?xml version="1.0" encoding="UTF-8"?>
<!DOCTYPE svg PUBLIC "-//W3C//DTD SVG 1.1//EN" "http://www.w3.org/Graphics/SVG/1.1/DTD/svg11.dtd">
<!-- Creator: CorelDRAW 2018 (64-Bit Evaluation Version) -->
<svg xmlns="http://www.w3.org/2000/svg" xml:space="preserve" width="0.393701in" height="0.393701in" version="1.1" style="shape-rendering:geometricPrecision; text-rendering:geometricPrecision; image-rendering:optimizeQuality; fill-rule:evenodd; clip-rule:evenodd"
viewBox="0 0 56.56 56.56"
 xmlns:xlink="http://www.w3.org/1999/xlink">
 <defs>
  <style type="text/css">
   <![CDATA[
    .fil1 {fill:#F7657C}
    .fil2 {fill:#FBB2BD}
    .fil0 {fill:#FEE8EB}
   ]]>
  </style>
 </defs>
 <g id="Layer_x0020_1">
  <metadata id="CorelCorpID_0Corel-Layer"/>
  <path class="fil0" d="M14.85 1.1c3.67,-0.82 8.13,-1.1 13.43,-1.1 5.3,0 9.76,0.28 13.43,1.1 3.7,0.82 6.78,2.23 9.15,4.6 2.37,2.37 3.77,5.45 4.6,9.15 0.82,3.67 1.1,8.13 1.1,13.43 0,5.3 -0.28,9.76 -1.1,13.43 -0.82,3.7 -2.23,6.78 -4.6,9.15 -2.37,2.37 -5.45,3.77 -9.15,4.6 -3.67,0.82 -8.13,1.1 -13.43,1.1 -5.3,0 -9.76,-0.28 -13.43,-1.1 -3.7,-0.82 -6.78,-2.23 -9.15,-4.6 -2.37,-2.37 -3.77,-5.45 -4.6,-9.15 -0.82,-3.67 -1.1,-8.13 -1.1,-13.43 0,-5.3 0.28,-9.76 1.1,-13.43 0.82,-3.7 2.23,-6.78 4.6,-9.15 2.37,-2.37 5.45,-3.77 9.15,-4.6z"/>
  <g id="_2900671795744">
   <circle class="fil1" cx="28.28" cy="28.28" r="15.25"/>
   <path class="fil2" d="M28.19 18.66l0 0c1.05,0 1.91,0.86 1.91,1.91l0 6.43 3.65 4.78c0.64,0.83 0.48,2.04 -0.36,2.67l0 0c-0.83,0.64 -2.04,0.48 -2.67,-0.36l-4.04 -5.29c-0.31,-0.4 -0.43,-0.89 -0.38,-1.36 -0.01,-0.07 -0.01,-0.14 -0.01,-0.21l0 -6.66c0,-1.05 0.86,-1.91 1.91,-1.91z"/>
  </g>
 </g>
</svg>
