<?xml version="1.0" encoding="UTF-8"?>
<!DOCTYPE svg PUBLIC "-//W3C//DTD SVG 1.1//EN" "http://www.w3.org/Graphics/SVG/1.1/DTD/svg11.dtd">
<!-- Creator: CorelDRAW 2018 (64-Bit Evaluation Version) -->
<svg xmlns="http://www.w3.org/2000/svg" xml:space="preserve" width="0.393701in" height="0.393701in" version="1.1" style="shape-rendering:geometricPrecision; text-rendering:geometricPrecision; image-rendering:optimizeQuality; fill-rule:evenodd; clip-rule:evenodd"
viewBox="0 0 56.56 56.56"
 xmlns:xlink="http://www.w3.org/1999/xlink">
 <defs>
  <style type="text/css">
   <![CDATA[
    .fil1 {fill:#7D849D}
    .fil2 {fill:#DFE1E7}
    .fil0 {fill:#ECEDF0}
   ]]>
  </style>
 </defs>
 <g id="Layer_x0020_1">
  <metadata id="CorelCorpID_0Corel-Layer"/>
  <path class="fil0" d="M14.85 1.1c3.67,-0.82 8.13,-1.1 13.43,-1.1 5.3,0 9.76,0.28 13.43,1.1 3.7,0.82 6.78,2.23 9.15,4.6 2.37,2.37 3.77,5.45 4.6,9.15 0.82,3.67 1.1,8.13 1.1,13.43 0,5.3 -0.28,9.76 -1.1,13.43 -0.82,3.7 -2.23,6.78 -4.6,9.15 -2.37,2.37 -5.45,3.77 -9.15,4.6 -3.67,0.82 -8.13,1.1 -13.43,1.1 -5.3,0 -9.76,-0.28 -13.43,-1.1 -3.7,-0.82 -6.78,-2.23 -9.15,-4.6 -2.37,-2.37 -3.77,-5.45 -4.6,-9.15 -0.82,-3.67 -1.1,-8.13 -1.1,-13.43 0,-5.3 0.28,-9.76 1.1,-13.43 0.82,-3.7 2.23,-6.78 4.6,-9.15 2.37,-2.37 5.45,-3.77 9.15,-4.6z"/>
  <g id="_2900655813360">
   <rect class="fil1" x="13.03" y="14.85" width="30.51" height="26.86" rx="2.83" ry="2.83"/>
   <rect class="fil2" x="16.77" y="20.84" width="22.93" height="5.8" rx="2.83" ry="2.83"/>
   <rect class="fil2" x="16.84" y="28.74" width="14.99" height="9.61" rx="4.36" ry="3.41"/>
   <rect class="fil2" x="33.64" y="28.74" width="6.06" height="9.62" rx="1.76" ry="3.41"/>
  </g>
 </g>
</svg>
